<?xml version="1.0" encoding="utf-8"?>
<!-- Generator: Adobe Illustrator 27.0.0, SVG Export Plug-In . SVG Version: 6.00 Build 0)  -->
<svg version="1.1" id="Layer_1" xmlns="http://www.w3.org/2000/svg" xmlns:xlink="http://www.w3.org/1999/xlink" x="0px" y="0px"
	 viewBox="0 0 576 576" style="enable-background:new 0 0 576 576;" xml:space="preserve">
<style type="text/css">
	.st0{fill:#B2A268;}
	.st1{fill:#003057;}
</style>
<g id="Outer_Ring">
	<path class="st0" d="M288.2,531C153.9,531,45,422.1,45,287.8c0-64.5,25.6-126.4,71.2-172c95-95,249-95,344,0s95,249,0,344
		C414.7,505.6,352.8,531.2,288.2,531z M288.2,56.6C160.5,56.6,57,160.1,57,287.8c0,61.3,24.4,120.1,67.7,163.5
		c90.3,90.3,236.7,90.3,327,0s90.3-236.7,0-327C408.5,80.8,349.6,56.4,288.2,56.6L288.2,56.6z"/>
	<path class="st1" d="M288.2,511.7c-123.6,0-223.9-100.2-223.9-223.9c0-59.4,23.6-116.3,65.6-158.3c87.4-87.4,229.2-87.4,316.6,0
		s87.4,229.2,0,316.6l0,0C404.7,488.3,347.7,511.9,288.2,511.7z M288.2,66.4c-122.3,0-221.4,99.2-221.4,221.5S166,509.3,288.3,509.3
		s221.4-99.2,221.4-221.5c0-58.7-23.3-115.1-64.9-156.6C403.4,89.6,347,66.2,288.2,66.4L288.2,66.4z"/>
</g>
<g id="Inner_Ring">
	<path class="st1" d="M288.2,110.3c-98.1,0-177.5,79.5-177.5,177.6s79.5,177.5,177.5,177.5s177.6-79.5,177.6-177.5
		S386.3,110.3,288.2,110.3C288.2,110.3,288.2,110.3,288.2,110.3z M454.3,308.5c-0.4,2.9-0.8,5.8-1.3,8.7l-8.8,3.3
		c-0.5,2.3-1,4.6-1.6,6.9l6.4,6.8c-0.8,2.8-1.7,5.6-2.7,8.4l-9.2,1.9c-0.8,2.2-1.7,4.4-2.7,6.5l5.2,7.8c-1.2,2.7-2.6,5.3-4,7.9
		l-9.4,0.5c-1.2,2-2.4,4-3.6,6l4,8.5c-1.7,2.4-3.4,4.8-5.2,7.2l-9.3-1c-1.5,1.8-3,3.6-4.5,5.4l2.6,9c-2,2.2-4.1,4.3-6.2,6.3l-9-2.5
		c-1.7,1.6-3.5,3.1-5.3,4.6l1.1,9.3c-2.3,1.8-4.7,3.6-7.1,5.2l-8.5-3.9c-2,1.3-4,2.5-6,3.7l-0.3,9.4c-2.6,1.4-5.2,2.8-7.8,4.1
		l-7.8-5.1c-2.1,0.9-4.3,1.9-6.4,2.7l-1.8,9.2c-2.8,1-5.5,1.9-8.4,2.8l-6.9-6.3c-2.2,0.6-4.5,1.2-6.8,1.7l-3.2,8.8
		c-2.9,0.5-5.8,1-8.7,1.4l-5.9-7.3c-2.3,0.2-4.7,0.4-7,0.6l-4.5,8.2c-1.5,0-2.9,0.1-4.4,0.1s-3,0-4.4,0l-4.7-8.1
		c-2.3-0.1-4.7-0.3-7-0.5l-5.8,7.4c-2.9-0.4-5.8-0.8-8.7-1.3l-3.3-8.8c-2.3-0.5-4.6-1-6.9-1.6l-6.8,6.4c-2.8-0.8-5.6-1.7-8.4-2.7
		l-1.9-9.2c-2.2-0.8-4.4-1.7-6.5-2.7l-7.8,5.2c-2.7-1.2-5.3-2.6-7.9-4l-0.4-9.4c-2-1.2-4-2.4-6-3.6l-8.5,4c-2.4-1.7-4.8-3.4-7.2-5.2
		l1-9.3c-1.8-1.5-3.6-3-5.4-4.5l-9,2.6c-2.2-2-4.3-4.1-6.3-6.2l2.5-9c-1.6-1.7-3.1-3.5-4.6-5.3l-9.3,1.1c-1.8-2.3-3.6-4.7-5.2-7.1
		l3.9-8.6c-1.3-2-2.5-4-3.7-6l-9.4-0.3c-1.4-2.6-2.8-5.2-4.1-7.8l5.1-7.9c-1-2.1-1.9-4.3-2.8-6.5l-9.2-1.8c-1-2.8-1.9-5.5-2.8-8.4
		l6.3-6.9c-0.6-2.3-1.2-4.5-1.7-6.8l-8.8-3.2c-0.6-2.9-1-5.8-1.4-8.7l7.3-5.9c-0.2-2.3-0.4-4.6-0.6-7l-8.2-4.5
		c0-1.5-0.1-2.9-0.1-4.4s0-3,0-4.4l8.1-4.6c0.1-2.3,0.3-4.7,0.5-7l-7.4-5.8c0.4-2.9,0.8-5.8,1.3-8.7l8.8-3.3c0.5-2.3,1-4.6,1.6-6.9
		l-6.4-6.8c0.8-2.8,1.7-5.6,2.7-8.4l9.2-1.9c0.8-2.2,1.7-4.4,2.7-6.5l-5.2-7.8c1.2-2.7,2.6-5.3,3.9-7.9l9.4-0.4c1.2-2,2.4-4,3.6-6
		l-4-8.5c1.7-2.4,3.4-4.8,5.2-7.2l9.3,1c1.5-1.8,3-3.6,4.5-5.4l-2.6-9c2-2.2,4.1-4.3,6.2-6.3l9,2.5c1.7-1.6,3.5-3.1,5.3-4.6
		l-1.1-9.3c2.3-1.8,4.7-3.6,7.1-5.2l8.5,3.9c2-1.3,4-2.5,6-3.7l0.3-9.4c2.6-1.4,5.2-2.8,7.8-4l7.8,5.1c2.1-1,4.3-1.9,6.5-2.8
		l1.8-9.2c2.8-1,5.5-1.9,8.4-2.8l6.9,6.3c2.3-0.6,4.5-1.2,6.8-1.7l3.2-8.8c2.9-0.6,5.8-1,8.7-1.4l5.9,7.3c2.3-0.2,4.6-0.4,7-0.6
		l4.5-8.2c1.5,0,2.9-0.1,4.4-0.1s3,0,4.4,0l4.6,8.1c2.3,0.1,4.7,0.3,7,0.5l5.8-7.4c2.9,0.4,5.8,0.8,8.7,1.3l3.3,8.8
		c2.3,0.5,4.6,1,6.9,1.6l6.8-6.4c2.8,0.8,5.6,1.7,8.4,2.7l1.9,9.2c2.2,0.8,4.4,1.7,6.5,2.7l7.8-5.2c2.7,1.2,5.3,2.6,7.9,3.9l0.5,9.4
		c2,1.2,4,2.4,6,3.6l8.5-4c2.4,1.7,4.8,3.4,7.2,5.2l-1,9.3c1.8,1.5,3.6,3,5.4,4.5l9-2.6c2.2,2,4.3,4.1,6.3,6.2l-2.5,9
		c1.6,1.7,3.1,3.5,4.6,5.3l9.3-1.1c1.8,2.3,3.6,4.7,5.2,7.1l-3.9,8.5c1.3,2,2.5,4,3.7,6l9.4,0.3c1.4,2.6,2.8,5.2,4,7.8l-5.1,7.8
		c1,2.1,1.9,4.3,2.8,6.5l9.2,1.8c1,2.8,1.9,5.5,2.8,8.4l-6.3,6.9c0.6,2.3,1.2,4.5,1.7,6.8l8.8,3.2c0.5,2.9,1,5.8,1.4,8.7l-7.3,5.9
		c0.2,2.3,0.4,4.6,0.6,7l8.2,4.5c0,1.5,0.1,2.9,0.1,4.4s0,3,0,4.4l-8.1,4.6c-0.1,2.3-0.3,4.7-0.5,7L454.3,308.5z"/>
</g>
<g id="Flame">
	<path class="st0" d="M303.7,163.4c-0.7-7-5.6-11.4-8.7-17.1c-5.3-9.7-4.7-13.2-4.7-13.2s0.4-4-2.7-4c-2.7,0-4,2.8-4.8,4.4
		c-1.2,3.1-2,6.3-2.3,9.6c-0.7,7-6.5,9.4-8,20c0,0-1,11.8,6,17.4h19.3C305,174.4,303.7,163.4,303.7,163.4z M282.8,176.7
		c-4-2.9-6.3-7.6-6.2-12.5c0-6.2,6.2-15,6.2-15s1.2,8.4,4.2,13.9C290.7,169.9,282.8,176.7,282.8,176.7z M297.6,176
		c-1.3,1.7-2.8,3.2-4.6,4.4h-8.6c5.8-6.8,9.8-11.4,5.7-20.5c-7.3-16-3.8-25.4-3.8-25.4c0.6,3,0.6,5.1,5.4,14
		c1.3,2.3,2.8,4.5,4.5,6.5C301.2,160.9,301.7,169.5,297.6,176z"/>
</g>
<g id="Blue_Shield">
	<path class="st0" d="M246.4,371c-2.4,2.2-5.3,3.9-8.4,5c3.8,5.4,7.9,10.7,12.3,15.9V380c-1.7-1.9-2.5-4.3-2.4-6.8v-3.7
		C247.5,370,247,370.5,246.4,371z"/>
	<path class="st0" d="M329.7,371c-0.4-0.4-0.8-0.7-1.1-1.1v3.2c0.1,2.5-0.8,4.9-2.4,6.8v12c4.4-5.2,8.5-10.5,12.3-15.9
		C335.2,375,332.2,373.3,329.7,371z"/>
	<path class="st0" d="M247.8,324.3c-10.8,7.8-13.6,16.7-14.2,18.8V357c6.7-0.6,11.3-2.2,12-5.7c0.4-1.8,0.8-3,1.4-3
		c0.3,0,0.6,0.1,0.9,0.3v-24.4L247.8,324.3z"/>
	<path class="st0" d="M331.5,324.3c-1.7-2-2.8-4.4-3-7v31.2c0.2,0,0.3-0.1,0.5,0c0.6,0,1,1.2,1.4,3c0.7,3.5,5.5,5.2,12.4,5.7v-15.7
		C340.8,334.7,336.8,328.8,331.5,324.3z"/>
	<path class="st0" d="M254.2,284.1h-32v0.6c0,1.4,1.7,1.7,1.7,1.9v6.4c0,1,0.5,1.9,1.4,2.4h3.2c0.6,0.6,1.1,1.2,1.4,1.7
		c0.2,2.4,0.8,4.6,2.5,5.1c0,1.1,0.3,2.2,0.9,3.1c0.1,1.2,0.1,3.5,0.2,4.8v6.8c3.3-4.1,7.1-7.7,11.4-10.8c1.1,1.5,2.1,3.2,3,4.9
		v-0.9c0.1-1.2,0.1-3.5,0.2-4.8c0.6-0.9,1-2,1-3.1c1-0.4,1.8-1.2,2-2.2c10.8,14.5,21.9,18.5,29.7,19.7V392h14.8v-72.3
		c7.8-1.1,18.9-5.3,29.7-19.8c0.2,1.1,1,2,2,2.3c0,1.1,0.3,2.2,1,3.1c0.1,1.2,0.1,3.5,0.2,4.8v4.5c0.4-3.5,1.8-6.8,4-9.6
		c3.9,3.4,7.4,7.3,10.4,11.5v-6.4c0.1-1.2,0.1-3.5,0.2-4.8c0.6-0.9,1-2,1-3.1c1.7-0.5,2.3-2.7,2.5-5.1c0.4-0.5,0.9-1.1,1.4-1.7h3.5
		c0.8-0.5,1.3-1.4,1.2-2.4v-6.4c0-0.1,0.1-0.3,0.2-0.4c0.8-0.1,1.3-0.8,1.3-1.5v-0.6L254.2,284.1z M288.2,316.1c-6.8,0-24.4,0-40-28
		h4.3c3.1,3.1,17.1,13,35.7,13s32.6-9.9,35.7-13h4.3C312.6,316.1,295,316.1,288.2,316.1z"/>
	<path class="st1" d="M296.1,417c-0.9,0-1.8,0.3-2.4,0.9c-1.2,1.4-1.2,3.4,0,4.8c0.6,0.6,1.5,1,2.4,0.9c0.9,0,1.8-0.3,2.4-0.9
		c1.2-1.4,1.2-3.4,0-4.8C297.9,417.3,297,417,296.1,417z"/>
	<path class="st1" d="M296.1,413.9c0.8,0,1.5-0.3,2-0.8c1-1.1,1-2.9,0-4c-1.1-1.1-2.9-1.1-4.1,0c-1,1.1-1,2.9,0,4
		C294.6,413.7,295.3,414,296.1,413.9z"/>
	<path class="st1" d="M278.3,417c-0.9,0-1.7,0.3-2.4,0.9c-1.2,1.4-1.2,3.4,0,4.8c0.6,0.6,1.5,1,2.4,0.9c0.9,0,1.8-0.3,2.4-0.9
		c1.2-1.4,1.2-3.4,0-4.8C280,417.3,279.2,417,278.3,417z"/>
	<path class="st1" d="M278.3,413.9c0.8,0,1.5-0.3,2-0.8c1-1.1,1-2.9,0-4c-0.5-0.5-1.2-0.8-2-0.8c-0.8,0-1.5,0.3-2,0.8
		c-1,1.1-1,2.9,0,4C276.8,413.6,277.5,413.9,278.3,413.9z"/>
	<path class="st1" d="M203.2,365.4c5.5-7.6,8.8-8.4,20.7-8.1h2.4c-12.4-22.4-20-47-22.4-72.5c0,0-2.9-31.1,3.9-56.1
		c0,0,17,7,42.4,11.3c22.3-17.7,53.9-17.7,76.2,0c25.4-4.3,42.4-11.3,42.4-11.3c6.8,25,3.9,56.1,3.9,56.1
		c-2.4,25.5-10,50.1-22.4,72.5h1.9c12-0.3,15.2,0.5,20.7,8.1c0,0-10.2-0.3-14.8,1.7c0,0,12.7,2.8,16.4,8.6
		c53.8-93.1,15.4-180.9,15.3-181.1c-3.7-8.7-10.7-21-23.5-21c-6.9-0.2-12.7,5.3-12.9,12.2s5.3,12.7,12.2,12.9l0,0
		c0.2,0,0.5,0.2,0.5,0.4c0,0.1,0,0.2-0.1,0.3c-3.6,3.6-15.3,10.3-32.1,12.9c-31.4,5-35.9-11.3-36.3-13.6c1.4-0.3,3.8-1.3,3.8-3.4
		c-0.2-1.6-0.6-2.1-2-2.4h-2c0-2.1,1-4.1,2.7-5.3c1.1-0.7,2.3-1.3,3.6-1.9c1.4-0.3,1.8-1.8,2-3.4c-0.1-1.6-0.6-2.1-2-2.4H273
		c-1.4,0.3-1.8,0.8-2,2.4c0.1,1.6,0.6,3.1,2,3.4c1.2,0.5,2.4,1.2,3.6,1.9c1.7,1.2,2.7,3.2,2.7,5.3h-2c-1.4,0.3-1.8,0.8-2,2.4
		c0,2.1,2.3,3.1,3.7,3.4c-0.4,2.2-4.8,18.6-36.3,13.6c-16.9-2.7-28.5-9.4-32.1-12.9c-0.2-0.2-0.2-0.5,0-0.6c0.1-0.1,0.2-0.1,0.3-0.1
		l0,0c6.9-0.2,12.4-5.9,12.2-12.9s-5.9-12.4-12.9-12.2c-12.8-0.1-19.8,12.3-23.4,21c-0.1,0.1-38.4,87.7,15.1,180.7
		c4-5.5,16.2-8.2,16.2-8.2C213.5,365.1,203.2,365.4,203.2,365.4z"/>
	<path class="st1" d="M348.4,376.3c-3.3,0.9-6.7,0.8-9.9-0.2c-3.8,5.4-7.9,10.7-12.3,15.8h-75.7c-4.5-5.2-8.6-10.6-12.4-16
		c-3.3,1.2-6.9,1.3-10.3,0.3c-7.9-2.2-19.4,0.1-24.5,1.3c17.5,29.6,44.5,59.8,85.1,87.7c40.5-27.9,67.4-58,85-87.6
		C368.4,376.5,356.5,374,348.4,376.3z M267.3,426.1c0,0.1-0.1,0.3-0.2,0.3c0,0-0.1,0-0.1,0h-10.5c-0.1,0-0.3-0.1-0.3-0.2
		c0,0,0-0.1,0-0.1v-2.4c0-0.1,0.1-0.3,0.2-0.3c0,0,0.1,0,0.1,0h3.4c0.1,0,0.2,0,0.2-0.1c0,0,0,0,0,0v-13.6h0l-3.5,2.2
		c-0.2,0.1-0.3,0.1-0.3-0.2v-3.1c0-0.2,0.1-0.3,0.2-0.4l3.6-2.4c0.2-0.1,0.3-0.2,0.5-0.2h2.6c0.1,0,0.3,0.1,0.3,0.2c0,0,0,0.1,0,0.1
		v17.4c0,0.1,0.1,0.2,0.2,0.2h3.3c0.1,0,0.3,0.1,0.3,0.2c0,0,0,0.1,0,0.1L267.3,426.1z M283.2,425c-2.8,2.3-6.9,2.3-9.7,0
		c-1.3-1.2-1.9-2.8-1.9-4.5c0-1,0.2-2.1,0.7-3c0.4-0.8,1.1-1.5,1.9-2v-0.1c-0.6-0.4-1.2-1-1.5-1.7c-0.4-0.8-0.6-1.7-0.6-2.5
		c0-1.6,0.6-3.1,1.7-4.2c2.6-2.3,6.6-2.3,9.2,0c1.1,1.1,1.7,2.6,1.7,4.2c0,0.9-0.2,1.8-0.6,2.5c-0.4,0.7-0.9,1.3-1.5,1.7v0.1
		c0.8,0.5,1.4,1.2,1.9,2c0.5,0.9,0.8,2,0.7,3C285.1,422.2,284.4,423.8,283.2,425z M301,425c-2.8,2.3-6.9,2.3-9.7,0
		c-1.3-1.2-1.9-2.8-1.9-4.5c0-1,0.2-2.1,0.7-3c0.4-0.8,1.1-1.5,1.9-2v-0.1c-0.6-0.4-1.2-1-1.5-1.7c-0.4-0.8-0.6-1.7-0.6-2.5
		c0-1.6,0.6-3.1,1.7-4.2c2.6-2.3,6.6-2.3,9.2,0c1.1,1.1,1.7,2.6,1.7,4.2c0,0.9-0.2,1.8-0.6,2.5c-0.4,0.7-0.9,1.3-1.5,1.7v0.1
		c0.8,0.5,1.4,1.2,1.9,2c0.5,0.9,0.8,2,0.7,3C302.9,422.2,302.3,423.8,301,425z M319.6,422.8c-0.4,1.2-1.2,2.2-2.2,2.9
		c-1.2,0.7-2.6,1.1-4.1,1c-1.9,0.1-3.7-0.4-5.3-1.4c-0.2-0.1-0.3-0.3-0.2-0.5V421c0-0.2,0.1-0.3,0.2-0.3c0,0,0,0,0.1,0h2.6
		c0.1,0,0.3,0.1,0.3,0.2c0,0,0,0.1,0,0.1v2c0,0.1,0.1,0.2,0.1,0.3c0.7,0.3,1.5,0.5,2.2,0.5c1.3,0.2,2.5-0.6,2.9-1.8
		c0.2-0.7,0.3-1.5,0.3-2.3c0-0.8-0.1-1.6-0.3-2.3c-0.3-1.1-1.4-1.8-2.6-1.7c-1-0.1-2,0.5-2.5,1.4c-0.1,0.2-0.2,0.3-0.4,0.3h-2.5
		c-0.1,0-0.3-0.1-0.3-0.2c0,0,0-0.1,0-0.1v-11.3c0-0.1,0.1-0.3,0.2-0.3c0,0,0.1,0,0.1,0h11c0.1,0,0.3,0.1,0.3,0.2c0,0,0,0.1,0,0.1
		v2.5c0,0.2-0.1,0.3-0.3,0.3h-8c-0.1,0-0.2,0.1-0.2,0.1c0,0,0,0,0,0v4.7h0.1c0.9-0.7,2-1,3.1-0.9c2.7,0,4.5,1.1,5.2,3.4
		c0.3,1.2,0.5,2.4,0.5,3.6C320,420.7,319.9,421.8,319.6,422.8L319.6,422.8z"/>
	<path class="st0" d="M288.4,242c22.2,0,39.7,16.3,40.6,37.5c2.5,0.1,7.7,0.1,12.8,0c-1.2-27.9-23.8-48.7-53.5-48.7
		s-52.3,20.8-53.4,48.6l13-0.1C248.9,258.2,266.3,242,288.4,242z"/>
	<path class="st0" d="M235,346.8l-2.4-1.5c-0.3-0.2-6.9-4.3-5.9-17c1-12.5,16.6-23.3,17.2-23.8l1.6-1.1l1.1,1.6
		c10.4,14.4,2.8,20.6,2.4,20.9c-11.5,8.4-13.5,18-13.5,18.1L235,346.8z M244.5,309c-3.8,3-13.2,11.1-13.9,19.6
		c-0.4,5.7,0.9,9.2,2.1,11.2c1.6-4,5.4-10.8,13.9-17C247,322.4,250.7,318.5,244.5,309L244.5,309z"/>
	<path class="st0" d="M341.9,347.1l-0.5-3.2c0-0.1-1.7-9.8-11.2-18.1l-0.1-0.1c-0.1-0.1-8.6-8.8,0.8-21.9l1.2-1.7l1.6,1.4
		c0.6,0.5,14.9,12.4,15.7,24.8s-4.3,16.5-4.9,16.9L341.9,347.1z M332.9,322.8c5,4.4,8.9,9.9,11.2,16.2c1.3-3.3,1.7-6.9,1.4-10.4
		c-0.5-8.4-8.9-17.1-12.6-20.5C327.7,316.8,332.4,322.3,332.9,322.8z"/>
	<path class="st0" d="M377.8,381.1l-2.9-0.9c-0.2,0-16.3-4.8-26-2c-11.2,3.2-20.1-5.2-20.6-5.8c-9.8-9.3-8.5-14.3-6-19.5
		c2.2-4.6,4.5-6.8,6.9-6.7s2.9,2.9,3.3,4.6s3.4,4.7,19.7,4.3c12.6-0.3,16.5,0.7,22.4,9l2.3,3.3l-4-0.1c-1.4,0-3.9,0-6.6,0.2
		c5,2,10.7,5.5,11.2,10.5L377.8,381.1z M356.3,373.4c5.1,0.1,10.3,0.7,15.3,1.9c-3.5-3.3-10.9-5.6-13.9-6.2l-6.1-1.3l5.7-2.5
		c3-1.3,8-1.7,11.5-1.8c-3.5-3.9-6.9-4.4-16.6-4.2c-10.2,0.2-22.2-0.4-23.7-7.5c-0.1-0.4-0.1-0.6-0.2-0.9c-1,1.2-1.8,2.5-2.5,3.9
		c-1.7,3.5-3.3,6.8,5.2,14.8l0,0c0.1,0.1,7.8,7.4,16.8,4.8C350.6,373.7,353.4,373.3,356.3,373.4L356.3,373.4z"/>
	<path class="st0" d="M198.3,381.1l0.3-3c0.6-5.1,6.2-8.5,11.3-10.5c-2.7-0.2-5.3-0.2-6.6-0.2l-4,0.1l2.4-3.3
		c5.9-8.2,9.9-9.3,22.4-9c16.3,0.4,19.3-2.5,19.7-4.3s0.9-4.5,3.3-4.6c2.9-0.1,5.5,4.1,6.9,6.6c0.2,0.5,4.3,9.8-6,19.5
		c-0.6,0.6-9.5,9-20.6,5.8c-9.7-2.8-25.8,2-26,2L198.3,381.1z M207.3,363.4c3.6,0.1,8.5,0.5,11.5,1.8l5.7,2.5l-6.1,1.3
		c-3,0.7-10.4,3-13.9,6.2c5.9-1.3,16.2-3,23.7-0.9c9.1,2.6,16.7-4.7,16.8-4.8l0,0c7.9-7.5,5.4-14.2,5.2-14.8
		c-0.7-1.3-1.5-2.6-2.5-3.7c-0.1,0.2-0.1,0.4-0.2,0.7c-1.5,7.1-13.4,7.7-23.7,7.5C214.1,359,210.8,359.6,207.3,363.4L207.3,363.4z"
		/>
</g>
<g id="Type">
	<path class="st1" d="M79.3,282c0-1.2,0.2-2.4,0.6-3.5c0.3-1,0.8-1.9,1.5-2.7c0.1-0.1,0.3-0.2,0.4-0.2l3.6,0.1
		c0.1,0,0.3,0.1,0.3,0.2c0,0,0,0,0,0.1l-0.1,2.7c0,0.2-0.1,0.3-0.3,0.3c0,0,0,0-0.1,0h-1.8c-0.1,0-0.2,0-0.2,0.1
		c-0.6,0.9-0.9,2-0.9,3.1c0,2.2,0.8,3.6,2.6,4.3c1.5,0.4,3.1,0.6,4.7,0.6c1.5,0.1,3.1,0,4.6-0.3c0.8-0.2,1.5-0.7,2-1.4
		c0.5-0.8,0.8-1.8,0.7-2.7c0.1-1.2-0.1-2.3-0.6-3.3c-0.1-0.2-0.3-0.3-0.5-0.3l-4-0.1c-0.1,0-0.2,0.1-0.2,0.2l-0.1,3.2
		c0,0.2-0.1,0.3-0.3,0.3c0,0,0,0-0.1,0l-2.4-0.1c-0.1,0-0.3-0.1-0.3-0.2c0,0,0-0.1,0-0.1l0.1-6.5c0-0.2,0.1-0.3,0.3-0.3
		c0,0,0,0,0.1,0l8.6,0.2c0.3,0,0.6,0.2,0.7,0.4c1.3,2,1.9,4.4,1.8,6.7c-0.1,4-1.7,6.5-4.9,7.5c-1.9,0.4-3.8,0.5-5.7,0.4
		c-1.9,0-3.8-0.2-5.6-0.7C80.8,288.8,79.2,286.1,79.3,282z"/>
	<path class="st1" d="M80.5,266.9l1.7-14.3c0-0.1,0.1-0.3,0.3-0.3c0,0,0,0,0.1,0l4.6,0.6c0.1,0,0.3,0.1,0.3,0.3c0,0,0,0,0,0.1
		l-0.3,2.6c0,0.1-0.1,0.3-0.3,0.3c0,0,0,0-0.1,0l-1.6-0.2c-0.1,0-0.2,0-0.2,0.2l-0.7,6c0,0.1,0,0.2,0.2,0.2l5,0.6
		c0.1,0,0.2,0,0.2-0.1c0,0,0,0,0,0l0.5-4.1c0-0.1,0-0.2-0.1-0.2c0,0,0,0-0.1,0l-1.1-0.1c-0.1,0-0.3-0.1-0.3-0.3c0,0,0-0.1,0-0.1
		l0.3-2.5c0-0.1,0.1-0.3,0.3-0.3c0,0,0,0,0.1,0l5.6,0.7c0.1,0,0.3,0.1,0.3,0.3c0,0,0,0.1,0,0.1l-0.3,2.5c0,0.2-0.1,0.3-0.3,0.3
		l-1.1-0.1c-0.1,0-0.2,0-0.2,0.1c0,0,0,0,0,0l-0.5,4.1c0,0.1,0,0.2,0.1,0.2c0,0,0,0,0,0l5.2,0.6c0.1,0,0.2,0,0.2-0.1l0.7-6
		c0-0.1,0-0.2-0.1-0.2c0,0,0,0,0,0l-1.8-0.2c-0.1,0-0.3-0.1-0.3-0.3c0,0,0-0.1,0-0.1l0.3-2.6c0-0.1,0.1-0.3,0.3-0.3c0,0,0.1,0,0.1,0
		l4.8,0.6c0.1,0,0.3,0.1,0.3,0.3c0,0,0,0.1,0,0.1l-1.7,14.3c0,0.1-0.1,0.3-0.3,0.3c0,0-0.1,0-0.1,0l-2.3-0.3c-0.1,0-0.3-0.1-0.3-0.3
		c0,0,0,0,0-0.1l0.2-1.4c0-0.1,0-0.2-0.1-0.2c0,0,0,0-0.1,0l-14-1.7c-0.1,0-0.2,0-0.2,0.1c0,0,0,0,0,0.1l-0.2,1.4
		c0,0.1-0.1,0.3-0.3,0.3c0,0,0,0-0.1,0l-2.3-0.3C80.7,267.3,80.5,267.2,80.5,266.9C80.5,267,80.5,267,80.5,266.9z"/>
	<path class="st1" d="M85.6,236.1c0.3-1.6,1.2-3,2.3-4.1c1.2-1,2.6-1.6,4.2-1.7c1.9,0,3.8,0.3,5.6,0.8c1.8,0.4,3.6,1,5.3,1.9
		c1.3,0.8,2.4,2,2.9,3.4c0.5,1.5,0.6,3.2,0.1,4.7c-0.3,1.6-1.2,3-2.3,4.1c-1.2,1-2.6,1.6-4.2,1.7c-1.9,0-3.8-0.3-5.6-0.8
		c-1.8-0.4-3.6-1-5.3-1.9c-1.3-0.8-2.4-2-2.9-3.4C85.2,239.3,85.1,237.6,85.6,236.1z M88.7,236.9c-0.5,1.6,0.2,3.4,1.7,4.3
		c1.4,0.7,2.9,1.2,4.4,1.5c1.5,0.5,3,0.7,4.6,0.8c2.2-0.2,3.8-2.1,3.6-4.3c-0.1-1.2-0.8-2.3-1.8-3c-1.4-0.7-2.9-1.2-4.4-1.5
		c-1.5-0.5-3-0.7-4.6-0.8C90.4,233.9,89,235.1,88.7,236.9z"/>
	<path class="st1" d="M90.3,220.6l3.4-9c0.5-1.7,1.7-3.1,3.2-3.9c2.7-1.1,5.8-0.2,7.5,2.1c0.7,1,1,2.3,0.9,3.5l6.4-0.5
		c0.1,0,0.2-0.1,0.2-0.2l0.5-1.3c0-0.1,0.2-0.2,0.3-0.2c0,0,0,0,0.1,0l2.2,0.8c0.1,0,0.2,0.2,0.2,0.3c0,0,0,0,0,0.1l-1.3,3.4
		c-0.1,0.2-0.2,0.3-0.4,0.3l-9,0.7l-1.1,2.9c0,0.1,0,0.2,0.1,0.2c0,0,0,0,0,0l4.9,1.8c0.1,0,0.2,0,0.2-0.1c0,0,0,0,0,0l0.5-1.4
		c0-0.1,0.2-0.2,0.3-0.2c0,0,0,0,0.1,0l2.2,0.8c0.1,0,0.2,0.2,0.2,0.3c0,0,0,0,0,0.1l-2.4,6.3c0,0.1-0.2,0.2-0.3,0.2c0,0,0,0-0.1,0
		l-2.2-0.8c-0.1,0-0.2-0.2-0.2-0.3c0,0,0-0.1,0-0.1l0.5-1.4c0-0.1,0-0.2-0.1-0.2c0,0,0,0,0,0l-13.2-5c-0.1-0.1-0.2,0-0.2,0.1
		l-0.5,1.4c0,0.1-0.2,0.2-0.3,0.2c0,0-0.1,0-0.1,0l-2.2-0.8C90.3,221,90.2,220.8,90.3,220.6C90.3,220.7,90.3,220.6,90.3,220.6z
		 M96.5,212.9l-1.5,3.9c0,0.1,0,0.2,0.1,0.2c0,0,0,0,0,0l5,1.9c0.1,0,0.2,0,0.2-0.1c0,0,0,0,0,0l1.5-3.9c0.3-0.8,0.3-1.6,0-2.4
		c-0.3-0.7-0.9-1.3-1.6-1.5c-0.7-0.3-1.5-0.3-2.2,0C97.3,211.4,96.7,212.1,96.5,212.9z"/>
	<path class="st1" d="M103.1,190.2c0.6-1.1,1.3-2,2.1-2.9c0.7-0.7,1.6-1.3,2.5-1.8c0.1-0.1,0.3-0.1,0.5,0l3.2,1.6
		c0.1,0.1,0.2,0.2,0.2,0.3c0,0,0,0,0,0.1l-1.2,2.4c-0.1,0.1-0.2,0.2-0.3,0.2c0,0,0,0-0.1,0l-1.6-0.8c-0.1-0.1-0.2-0.1-0.3,0
		c-0.9,0.6-1.7,1.4-2.2,2.4c-1,1.9-0.9,3.6,0.5,5c1.2,1,2.5,1.9,3.9,2.6c1.3,0.8,2.8,1.4,4.3,1.8c0.8,0.2,1.7,0,2.4-0.3
		c0.8-0.5,1.5-1.2,1.9-2.1c0.6-1,0.9-2.1,0.9-3.3c0-0.2-0.1-0.4-0.3-0.5l-3.5-1.9c-0.1,0-0.2,0-0.2,0c0,0,0,0,0,0l-1.5,2.9
		c0,0.1-0.2,0.2-0.3,0.2c0,0,0,0-0.1,0l-2.1-1.1c-0.1,0-0.2-0.2-0.2-0.3c0,0,0-0.1,0-0.1l3-5.8c0-0.1,0.2-0.2,0.3-0.2
		c0,0,0.1,0,0.1,0l7.6,4c0.3,0.1,0.4,0.4,0.5,0.7c0.3,2.4-0.2,4.8-1.4,6.8c-1.8,3.6-4.4,5.1-7.7,4.5c-1.9-0.5-3.6-1.2-5.3-2.2
		c-1.7-0.8-3.3-1.8-4.7-3.1C101.4,197,101.1,193.9,103.1,190.2z"/>
	<path class="st1" d="M110.8,177.2l3.7-5.7c0.1-0.1,0.2-0.2,0.3-0.1c0,0,0,0,0.1,0l2,1.3c0.1,0.1,0.2,0.2,0.1,0.3c0,0,0,0,0,0.1
		l-0.8,1.2c-0.1,0.1-0.1,0.2,0,0.2c0,0,0,0,0,0l11.9,7.6c0.1,0.1,0.2,0.1,0.2,0c0,0,0,0,0,0l0.8-1.2c0.1-0.1,0.2-0.2,0.4-0.1
		c0,0,0,0,0.1,0l2,1.3c0.1,0.1,0.2,0.2,0.1,0.4c0,0,0,0,0,0.1l-3.7,5.7c-0.1,0.1-0.2,0.2-0.3,0.1c0,0,0,0-0.1,0l-2-1.3
		c-0.1-0.1-0.2-0.2-0.1-0.3c0,0,0,0,0-0.1l0.8-1.2c0.1-0.1,0.1-0.2,0-0.2c0,0,0,0,0,0l-11.9-7.6c-0.1-0.1-0.2-0.1-0.2,0c0,0,0,0,0,0
		l-0.8,1.2c-0.1,0.1-0.2,0.2-0.4,0.1c0,0,0,0-0.1,0l-2-1.3C110.8,177.5,110.7,177.4,110.8,177.2
		C110.8,177.2,110.8,177.2,110.8,177.2z"/>
	<path class="st1" d="M123.1,159.6l2-2.5c0.1-0.2,0.3-0.2,0.5-0.1l17,5.8c0.1,0.1,0.2,0,0.2-0.1c0,0,0,0,0,0l0.6-0.7
		c0.1-0.1,0.2-0.2,0.4-0.1c0,0,0,0,0.1,0l1.8,1.4c0.1,0.1,0.2,0.2,0.1,0.3c0,0,0,0.1-0.1,0.1l-3.8,4.8c-0.1,0.1-0.2,0.2-0.3,0.1
		c0,0-0.1,0-0.1-0.1l-1.8-1.4c-0.1-0.1-0.1-0.2-0.1-0.4c0,0,0,0,0.1-0.1l0.8-1c0.1-0.1,0.1-0.2-0.1-0.2l-2.6-0.9l-4.3,5.4l1.5,2.3
		c0.1,0.1,0.2,0.1,0.3,0l0.8-1c0.1-0.1,0.2-0.2,0.4-0.1c0,0,0,0,0.1,0.1l1.8,1.4c0.1,0.1,0.1,0.2,0.1,0.4c0,0,0,0-0.1,0.1l-3.8,4.8
		c-0.1,0.1-0.2,0.2-0.4,0.1c0,0,0,0-0.1-0.1l-1.8-1.4c-0.1-0.1-0.2-0.2-0.1-0.4c0,0,0,0,0,0l0.6-0.8c0.1-0.1,0.1-0.2,0-0.3
		l-9.7-15.1C123,159.9,123,159.7,123.1,159.6z M127.5,161.1l4,6.2l3-3.8L127.5,161.1L127.5,161.1z"/>
	<path class="st1" d="M142.5,137.8l4.9-4.6c0.1-0.1,0.2-0.1,0.4-0.1c0,0,0,0,0.1,0.1l1.6,1.7c0.1,0.1,0.1,0.2,0.1,0.4
		c0,0,0,0-0.1,0.1l-1.1,1c-0.1,0-0.1,0.1,0,0.2c0,0,0,0,0,0l9.7,10.3c0,0.1,0.1,0.1,0.2,0c0,0,0,0,0,0l1.1-1
		c0.1-0.1,0.2-0.1,0.4-0.1c0,0,0,0,0.1,0.1l1.6,1.7c0.1,0.1,0.1,0.2,0.1,0.4c0,0,0,0-0.1,0.1l-4.9,4.6c-0.1,0.1-0.2,0.1-0.4,0.1
		c0,0,0,0-0.1-0.1l-1.6-1.7c-0.1-0.1-0.1-0.2-0.1-0.4c0,0,0,0,0.1-0.1l1-1c0.1-0.1,0.1-0.2,0-0.2c0,0,0,0,0,0l-9.7-10.3
		c-0.1-0.1-0.2-0.1-0.2,0c0,0,0,0,0,0l-1.1,1c-0.1,0.1-0.2,0.1-0.4,0.1c0,0,0,0-0.1-0.1l-1.6-1.7
		C142.3,138.1,142.3,137.9,142.5,137.8C142.5,137.8,142.5,137.8,142.5,137.8z"/>
	<path class="st1" d="M162.6,120.5l5.1-3.9c0.1-0.1,0.3-0.1,0.4,0c0,0,0,0,0,0.1l1.4,1.8c0.1,0.1,0.1,0.3,0,0.4c0,0,0,0-0.1,0
		l-1.1,0.9c-0.1,0-0.1,0.1,0,0.2c0,0,0,0,0,0l10.4,13.4c0.1,0.1,0.1,0.3,0,0.4c0,0,0,0,0,0l-2.1,1.6c-0.2,0.1-0.4,0.2-0.6,0.1
		l-15.1-6l-0.1,0.1l6.9,8.9c0.1,0.1,0.2,0.1,0.2,0c0,0,0,0,0,0l1.1-0.9c0.1-0.1,0.3-0.1,0.4,0c0,0,0,0,0,0l1.4,1.9
		c0.1,0.1,0.1,0.3,0,0.4c0,0,0,0-0.1,0l-5.1,3.9c-0.1,0.1-0.3,0.1-0.4,0c0,0,0,0,0-0.1l-1.5-1.7c-0.1-0.1-0.1-0.2-0.1-0.4
		c0,0,0,0,0.1-0.1l1.1-0.9c0.1-0.1,0.1-0.2,0-0.2c0,0,0,0,0,0l-8.6-11.2c-0.1-0.1-0.2-0.1-0.2,0c0,0,0,0,0,0l-1.1,0.9
		c-0.1,0.1-0.3,0.1-0.4,0c0,0,0,0,0-0.1l-1.4-1.8c-0.1-0.1-0.1-0.3,0-0.4c0,0,0,0,0.1-0.1l3.7-2.8c0.2-0.1,0.4-0.2,0.6-0.1l15.1,6
		l0.1-0.1l-6.8-8.9c-0.1-0.1-0.2-0.1-0.2,0c0,0,0,0,0,0l-1.1,0.9c-0.1,0.1-0.2,0.1-0.3,0.1c0,0,0,0-0.1-0.1l-1.4-1.8
		c-0.1,0-0.2-0.1-0.2-0.3C162.3,120.6,162.5,120.5,162.6,120.5z"/>
	<path class="st1" d="M180.9,107.8c1.8-1.1,3.8-1.7,5.9-1.8c0.2,0,0.3,0.1,0.4,0.2l2,3.4c0.1,0.1,0.1,0.3,0,0.4c0,0,0,0-0.1,0
		l-2.3,1.4c-0.1,0.1-0.3,0.1-0.4,0c0,0,0,0,0-0.1l-0.9-1.6c0-0.1-0.2-0.2-0.3-0.1c-1,0.2-2,0.5-2.8,1.1c-0.8,0.4-1.4,1.1-1.8,1.9
		c-0.2,0.7-0.1,1.5,0.3,2.1c0.3,0.6,1,1.1,1.7,1.2c1,0.1,2-0.2,2.9-0.6l1-0.4c3.8-1.6,6.5-0.9,8.3,2c0.9,1.4,1.2,3.2,0.7,4.9
		c-0.7,1.9-2.2,3.4-3.9,4.3c-2,1.2-4.2,1.9-6.5,2c-0.2,0-0.3-0.1-0.4-0.2l-2.1-3.5c-0.1-0.1-0.1-0.3,0-0.4c0,0,0,0,0.1,0l2.4-1.4
		c0.1-0.1,0.3-0.1,0.4,0c0,0,0,0,0,0.1l1,1.7c0,0.1,0.1,0.1,0.2,0.1c1.2-0.2,2.3-0.6,3.4-1.2c0.9-0.5,1.6-1.2,2-2.1
		c0.3-0.8,0.2-1.7-0.3-2.4c-0.4-0.6-1-1.1-1.7-1.2c-1-0.1-2.1,0.2-3,0.6l-1,0.4c-3.8,1.6-6.5,1-8.2-1.9c-0.9-1.4-1.2-3.2-0.7-4.8
		C177.8,110,179.2,108.6,180.9,107.8z"/>
	<path class="st1" d="M193.8,100.9l14.6-6.7c0.1-0.1,0.3,0,0.4,0.1c0,0,0,0,0,0.1l2,4.3c0.1,0.1,0.1,0.3-0.1,0.3c0,0-0.1,0-0.1,0
		l-2.3,1.1c-0.1,0.1-0.3,0-0.4-0.1c0,0,0,0,0-0.1l-0.8-1.6c0-0.1-0.1-0.1-0.2-0.1c0,0,0,0,0,0l-2.8,1.3c-0.1,0-0.1,0.1-0.1,0.2
		c0,0,0,0,0,0l5.8,12.7c0,0.1,0.1,0.1,0.2,0.1c0,0,0,0,0,0l1.4-0.7c0.1-0.1,0.3-0.1,0.4,0.1c0,0,0,0.1,0,0.1l1,2.1
		c0.1,0.1,0,0.3-0.1,0.4c0,0,0,0-0.1,0l-6.4,2.9c-0.1,0.1-0.3,0-0.4-0.1c0,0,0,0,0-0.1l-1-2.1c-0.1-0.1,0-0.3,0.1-0.4c0,0,0,0,0.1,0
		l1.4-0.7c0.1,0,0.1-0.1,0.1-0.2c0,0,0,0,0,0l-5.8-12.7c0-0.1-0.1-0.1-0.2-0.1c0,0,0,0,0,0l-2.8,1.3c-0.1,0-0.1,0.1-0.1,0.2
		c0,0,0,0,0,0l0.8,1.6c0.1,0.1,0,0.3-0.1,0.4c0,0,0,0-0.1,0l-2.4,1.1c-0.1,0.1-0.3,0.1-0.3-0.1c0,0,0-0.1,0-0.1l-2-4.3
		C193.5,101.1,193.6,101,193.8,100.9C193.7,100.9,193.8,100.9,193.8,100.9z"/>
	<path class="st1" d="M215,91.6l6.4-2.3c0.1-0.1,0.3,0,0.4,0.1c0,0,0,0,0,0.1l0.8,2.2c0.1,0.1,0,0.3-0.1,0.4c0,0,0,0-0.1,0l-1.4,0.5
		c-0.1,0-0.1,0.1-0.1,0.2c0,0,0,0,0,0l4.8,13.3c0,0.1,0.1,0.1,0.2,0.1c0,0,0,0,0,0l1.4-0.5c0.1-0.1,0.3,0,0.4,0.1c0,0,0,0,0,0.1
		l0.8,2.2c0.1,0.1,0,0.3-0.1,0.4c0,0,0,0-0.1,0l-6.4,2.3c-0.1,0.1-0.3,0-0.4-0.1c0,0,0,0,0-0.1l-0.8-2.2c-0.1-0.1,0-0.3,0.1-0.4
		c0,0,0,0,0.1,0l1.4-0.5c0.1,0,0.1-0.1,0.1-0.2c0,0,0,0,0,0L217.6,94c0-0.1-0.1-0.1-0.2-0.1c0,0,0,0,0,0l-1.4,0.5
		c-0.1,0.1-0.3,0-0.4-0.1c0,0,0,0,0-0.1l-0.8-2.2C214.8,91.9,214.8,91.7,215,91.6C215,91.6,215,91.6,215,91.6z"/>
	<path class="st1" d="M228.1,87.1l15.6-4c0.1-0.1,0.3,0,0.3,0.1c0,0,0,0,0,0.1l1.2,4.6c0.1,0.1,0,0.3-0.2,0.3c0,0,0,0-0.1,0
		l-2.5,0.7c-0.1,0.1-0.3,0-0.3-0.1c0,0,0-0.1,0-0.1l-0.4-1.7c0-0.1-0.1-0.2-0.2-0.1l-3,0.8c-0.1,0-0.2,0.1-0.1,0.2c0,0,0,0,0,0
		l3.5,13.5c0,0.1,0.1,0.1,0.2,0.1c0,0,0,0,0,0l1.5-0.4c0.1-0.1,0.3,0,0.4,0.1c0,0,0,0,0,0.1l0.6,2.3c0.1,0.1,0,0.3-0.1,0.3
		c0,0,0,0-0.1,0l-6.8,1.8c-0.1,0.1-0.3,0-0.3-0.1c0,0,0,0,0-0.1l-0.6-2.3c-0.1-0.1,0-0.3,0.1-0.4c0,0,0,0,0.1,0l1.5-0.4
		c0.1,0,0.2-0.1,0.1-0.2c0,0,0,0,0,0L235,88.7c0-0.1-0.1-0.2-0.2-0.1c0,0,0,0,0,0l-2.9,0.8c-0.1,0-0.2,0.1-0.1,0.2c0,0,0,0,0,0
		l0.4,1.7c0.1,0.1,0,0.3-0.1,0.3c0,0-0.1,0-0.1,0l-2.5,0.7c-0.1,0.1-0.3,0-0.3-0.1c0,0,0-0.1,0-0.1l-1.2-4.6c-0.1-0.1,0-0.3,0.1-0.3
		C228.1,87.1,228.1,87.1,228.1,87.1z"/>
	<path class="st1" d="M261.9,80l6.6-0.9c0.1,0,0.3,0,0.3,0.2c0,0,0,0,0,0.1l0.3,2.3c0,0.1,0,0.3-0.2,0.3c0,0,0,0-0.1,0l-1.4,0.2
		c-0.1,0-0.2,0.1-0.1,0.2l1.4,10c0.4,2-0.1,4.1-1.3,5.7c-2.7,3.1-7.2,3.7-10.7,1.5c-1.6-1.2-2.6-3.1-2.8-5.1l-1.4-10
		c0-0.1-0.1-0.2-0.2-0.2c0,0,0,0,0,0l-1.4,0.2c-0.1,0-0.3,0-0.3-0.2c0,0,0,0,0-0.1l-0.3-2.3c0-0.1,0-0.3,0.2-0.3c0,0,0.1,0,0.1,0
		l6.6-0.9c0.2,0,0.3,0.1,0.3,0.3l0.3,2.3c0,0.1,0,0.3-0.2,0.3c0,0,0,0-0.1,0l-1.4,0.2c-0.1,0-0.2,0.1-0.1,0.2l1.4,9.9
		c0.1,1.2,0.6,2.2,1.5,3c1.8,1.3,4.3,1,5.6-0.8c0.6-1,0.9-2.2,0.6-3.3l-1.4-9.9c0-0.1-0.1-0.2-0.1-0.2c0,0,0,0-0.1,0l-1.4,0.2
		c-0.1,0-0.3,0-0.3-0.2c0,0,0-0.1,0-0.1l-0.3-2.3c0-0.1,0-0.3,0.2-0.3C261.9,80,261.9,80,261.9,80z"/>
	<path class="st1" d="M275.5,78.6l16.1-0.3c0.2,0,0.3,0.1,0.3,0.3l0.1,4.8c0,0.1-0.1,0.3-0.2,0.3c0,0,0,0-0.1,0h-2.6
		c-0.1,0-0.3-0.1-0.3-0.2c0,0,0,0,0-0.1v-1.8c0-0.1-0.1-0.2-0.2-0.2c0,0,0,0,0,0l-3,0.1c-0.1,0-0.2,0.1-0.2,0.2l0.3,13.9
		c0,0.1,0.1,0.2,0.2,0.2h1.6c0.1,0,0.3,0.1,0.3,0.2c0,0,0,0.1,0,0.1l0,2.3c0,0.1-0.1,0.3-0.2,0.3c0,0-0.1,0-0.1,0l-7,0.2
		c-0.1,0-0.3-0.1-0.3-0.2c0,0,0-0.1,0-0.1l0-2.3c0-0.1,0.1-0.3,0.2-0.3c0,0,0,0,0.1,0h1.5c0.1,0,0.2-0.1,0.2-0.2c0,0,0,0,0,0
		l-0.3-13.9c0-0.1-0.1-0.2-0.2-0.2c0,0,0,0,0,0l-3,0.1c-0.1,0-0.2,0.1-0.2,0.2v1.8c0,0.1-0.1,0.3-0.2,0.3c0,0,0,0-0.1,0l-2.6,0.1
		c-0.1,0-0.3-0.1-0.3-0.2c0,0,0,0,0-0.1l-0.1-4.8C275.2,78.8,275.3,78.6,275.5,78.6C275.5,78.6,275.5,78.6,275.5,78.6z"/>
	<path class="st1" d="M299,78.6l14.4,1.3c0.1,0,0.3,0.1,0.3,0.2c0,0,0,0.1,0,0.1l-0.4,4.6c0,0.1-0.1,0.2-0.2,0.2l-2.6-0.2
		c-0.2,0-0.3-0.1-0.3-0.3l0.1-1.6c0-0.1,0-0.2-0.2-0.2l-6-0.5c-0.1,0-0.2,0-0.2,0.1c0,0,0,0,0,0l-0.4,5c0,0.1,0,0.2,0.2,0.2l4.1,0.3
		c0.1,0,0.2,0,0.2-0.1c0,0,0,0,0-0.1l0.1-1.1c0-0.2,0.1-0.3,0.3-0.3l2.5,0.2c0.2,0,0.3,0.1,0.3,0.3c0,0,0,0,0,0l-0.5,5.6
		c0,0.1-0.1,0.3-0.3,0.3c0,0,0,0-0.1,0l-2.5-0.2c-0.1,0-0.3-0.1-0.3-0.2c0,0,0-0.1,0-0.1l0.1-1.1c0-0.1,0-0.2-0.2-0.2l-4.1-0.4
		c-0.1,0-0.2,0-0.2,0.1c0,0,0,0,0,0l-0.5,5.3c0,0.1,0,0.2,0.2,0.2l6,0.5c0.1,0,0.2,0,0.2-0.1c0,0,0,0,0,0l0.1-1.8
		c0-0.2,0.1-0.3,0.3-0.3c0,0,0,0,0.1,0l2.6,0.2c0.1,0,0.3,0.1,0.3,0.2c0,0,0,0.1,0,0.1l-0.4,4.8c0,0.1-0.1,0.3-0.2,0.3
		c0,0-0.1,0-0.1,0l-14.4-1.3c-0.1,0-0.3-0.1-0.3-0.3c0,0,0,0,0-0.1l0.2-2.3c0-0.2,0.1-0.3,0.3-0.3L299,96c0.1,0,0.2,0,0.2-0.1
		c0,0,0,0,0,0l1.2-14.1c0-0.1,0-0.2-0.2-0.2l-1.4-0.1c-0.1,0-0.3-0.1-0.3-0.3c0,0,0,0,0-0.1l0.2-2.3C298.7,78.7,298.9,78.6,299,78.6
		z"/>
	<path class="st1" d="M341,84.8c1.6,0.4,3,1.2,4.1,2.4c1,1.2,1.6,2.7,1.6,4.2c0,1.9-0.3,3.8-0.9,5.6c-0.4,1.8-1,3.6-1.9,5.3
		c-0.8,1.3-2,2.3-3.5,2.9c-3.1,0.9-6.5,0-8.8-2.3c-1-1.2-1.6-2.7-1.6-4.2c0-1.9,0.3-3.8,0.8-5.6c0.4-1.8,1-3.6,1.9-5.3
		c0.8-1.3,2-2.3,3.5-2.9C337.8,84.4,339.5,84.4,341,84.8z M340.2,87.9c-1.6-0.5-3.4,0.1-4.3,1.6c-0.7,1.4-1.2,2.9-1.5,4.4
		c-0.5,1.5-0.7,3-0.8,4.6c0.2,2.2,2.1,3.9,4.3,3.7c1.2-0.1,2.4-0.8,3-1.8c0.7-1.4,1.2-2.9,1.5-4.4c0.5-1.5,0.7-3,0.8-4.6
		C343.2,89.7,341.9,88.2,340.2,87.9L340.2,87.9z"/>
	<path class="st1" d="M356.3,89.6l13.5,5.2c0.1,0,0.2,0.2,0.2,0.3c0,0,0,0,0,0.1l-1.7,4.5c0,0.1-0.2,0.2-0.3,0.2c0,0,0,0-0.1,0
		l-2.4-0.9c-0.1,0-0.2-0.2-0.2-0.3c0,0,0,0,0-0.1l0.6-1.7c0-0.1,0-0.2-0.1-0.2c0,0,0,0,0,0l-5.7-2.2c-0.1,0-0.2,0-0.2,0.1
		c0,0,0,0,0,0l-1.9,4.9c0,0.1,0,0.2,0.1,0.2c0,0,0,0,0,0l3.9,1.5c0.1,0,0.2,0,0.2-0.1c0,0,0,0,0,0l0.4-1c0-0.1,0.2-0.2,0.3-0.2
		c0,0,0,0,0.1,0l2.3,0.9c0.1,0,0.2,0.2,0.2,0.3c0,0,0,0,0,0.1l-2,5.3c0,0.1-0.2,0.2-0.3,0.2c0,0,0,0-0.1,0l-2.3-0.9
		c-0.1,0-0.2-0.2-0.2-0.3c0,0,0,0,0-0.1l0.4-1c0-0.1,0-0.2-0.1-0.2c0,0,0,0,0,0l-3.9-1.5c-0.1,0-0.2,0-0.2,0.1c0,0,0,0,0,0l-1.9,4.9
		c0,0.1,0,0.2,0.1,0.2c0,0,0,0,0,0l1.7,0.7c0.1,0,0.2,0.2,0.2,0.3c0,0,0,0,0,0.1l-0.8,2.2c0,0.1-0.2,0.2-0.3,0.2c0,0-0.1,0-0.1,0
		l-6.7-2.6c-0.1,0-0.2-0.2-0.2-0.3c0,0,0,0,0-0.1l0.8-2.2c0-0.1,0.2-0.2,0.3-0.2c0,0,0,0,0.1,0l1.4,0.5c0.1,0,0.2,0,0.2-0.1
		c0,0,0,0,0,0l5-13.2c0-0.1,0-0.2-0.1-0.2c0,0,0,0,0,0l-1.4-0.5c-0.1,0-0.2-0.2-0.2-0.3c0,0,0,0,0-0.1l0.9-2.2
		C356,89.7,356.2,89.6,356.3,89.6C356.3,89.6,356.3,89.6,356.3,89.6z"/>
	<path class="st1" d="M386.9,102.9l13.9,8.1c0.1,0.1,0.2,0.2,0.1,0.4c0,0,0,0,0,0.1l-2.4,4.1c0,0.1-0.2,0.2-0.3,0.2c0,0-0.1,0-0.1,0
		l-2.2-1.3c-0.1-0.1-0.2-0.2-0.1-0.4c0,0,0,0,0-0.1l0.9-1.6c0.1-0.1,0-0.2,0-0.2c0,0,0,0,0,0l-2.6-1.6c-0.1-0.1-0.2,0-0.2,0
		c0,0,0,0,0,0l-7,12c-0.1,0.1,0,0.2,0,0.2c0,0,0,0,0,0l1.3,0.8c0.1,0.1,0.2,0.2,0.1,0.4c0,0,0,0,0,0.1l-1.2,2
		c-0.1,0.1-0.2,0.2-0.4,0.1c0,0,0,0-0.1,0l-6-3.5c-0.1-0.1-0.2-0.2-0.1-0.4c0,0,0,0,0-0.1l1.2-2c0.1-0.1,0.2-0.2,0.4-0.1
		c0,0,0,0,0.1,0l1.3,0.8c0.1,0.1,0.2,0,0.2,0c0,0,0,0,0,0l7-12c0.1-0.1,0-0.2,0-0.2c0,0,0,0,0,0l-2.6-1.5c-0.1-0.1-0.2,0-0.2,0
		c0,0,0,0,0,0l-0.9,1.6c-0.1,0.1-0.2,0.2-0.4,0.1c0,0,0,0-0.1,0l-2.2-1.3c-0.1-0.1-0.2-0.2-0.1-0.4c0,0,0,0,0-0.1l2.4-4.1
		C386.6,102.9,386.7,102.8,386.9,102.9z"/>
	<path class="st1" d="M406.9,115.2l11.6,8.6c0.1,0.1,0.2,0.2,0.1,0.4c0,0,0,0,0,0.1l-2.8,3.7c-0.1,0.1-0.2,0.2-0.4,0.1
		c0,0,0,0-0.1,0l-2.1-1.5c-0.1-0.1-0.2-0.2-0.1-0.4c0,0,0,0,0-0.1l1-1.3c0.1-0.1,0.1-0.2,0-0.2c0,0,0,0,0,0l-4.9-3.6
		c-0.1-0.1-0.2-0.1-0.2,0c0,0,0,0,0,0l-3,4c-0.1,0.1-0.1,0.2,0,0.2c0,0,0,0,0,0l3.3,2.4c0.1,0.1,0.2,0.1,0.2,0c0,0,0,0,0,0l0.6-0.9
		c0.1-0.1,0.2-0.2,0.4-0.1c0,0,0,0,0.1,0l2,1.5c0.1,0.1,0.2,0.2,0.1,0.4c0,0,0,0,0,0.1l-3.4,4.5c-0.1,0.1-0.2,0.2-0.4,0.1
		c0,0,0,0-0.1,0l-2-1.5c-0.1-0.1-0.2-0.2-0.1-0.4c0,0,0,0,0-0.1l0.6-0.9c0.1-0.1,0.1-0.2,0-0.2c0,0,0,0,0,0l-3.3-2.4
		c-0.1-0.1-0.2-0.1-0.2,0c0,0,0,0,0,0l-3.1,4.2c-0.1,0.1-0.1,0.2,0,0.2c0,0,0,0,0,0l4.9,3.6c0,0.1,0.1,0.1,0.2,0c0,0,0,0,0,0
		l1.1-1.4c0.1-0.1,0.2-0.2,0.3-0.1c0,0,0.1,0,0.1,0.1l2.1,1.5c0.1,0.1,0.2,0.2,0.1,0.4c0,0,0,0,0,0.1l-2.8,3.9
		c-0.1,0.1-0.2,0.2-0.4,0.1c0,0,0,0-0.1,0l-11.6-8.6c-0.1-0.1-0.2-0.2-0.1-0.4c0,0,0,0,0-0.1l1.4-1.9c0.1-0.1,0.2-0.2,0.4-0.1
		c0,0,0,0,0.1,0l1.1,0.9c0.1,0.1,0.2,0.1,0.2,0c0,0,0,0,0,0l8.4-11.3c0.1-0.1,0.1-0.2,0-0.2c0,0,0,0,0,0l-1.1-0.9
		c-0.1-0.1-0.2-0.2-0.1-0.4c0,0,0,0,0-0.1l1.4-1.9C406.6,115.1,406.8,115.1,406.9,115.2C406.9,115.1,406.9,115.1,406.9,115.2z"/>
	<path class="st1" d="M431.1,134.4c1.6,1.4,2.8,3.2,3.4,5.3c0.1,0.2,0,0.3-0.1,0.5l-2.8,3c-0.1,0.1-0.2,0.1-0.4,0.1c0,0,0,0-0.1-0.1
		l-2-1.8c-0.1-0.1-0.1-0.2-0.1-0.4c0,0,0,0,0.1-0.1l1.4-1.5c0.1-0.1,0.1-0.2,0-0.3c-0.3-0.8-0.9-1.6-1.5-2.2
		c-0.7-0.7-1.5-1.2-2.5-1.4c-0.8-0.1-1.7,0.1-2.4,0.5c-1.3,0.9-2.4,1.9-3.4,3.1c-1.1,1.1-2.1,2.3-2.9,3.6c-0.4,0.7-0.5,1.6-0.4,2.4
		c0.3,0.9,0.8,1.8,1.6,2.4c0.6,0.6,1.4,1.1,2.2,1.4c0.1,0,0.2,0,0.3-0.1l1.5-1.6c0.1-0.1,0.3-0.1,0.4-0.1c0,0,0,0,0.1,0.1l2,1.8
		c0.1,0.1,0.1,0.2,0.1,0.4c0,0,0,0-0.1,0.1l-2.8,3c-0.1,0.1-0.3,0.2-0.5,0.1c-2.1-0.5-4-1.5-5.5-3c-2.8-2.7-3.6-5.5-2.1-8.5
		c1-1.7,2.2-3.2,3.5-4.5c1.2-1.4,2.6-2.7,4.1-3.7C425.4,131.4,428.3,131.8,431.1,134.4z"/>
	<path class="st1" d="M448.7,153.5l4.4,5.1c0.1,0.1,0.1,0.2,0.1,0.4c0,0,0,0-0.1,0.1l-1.8,1.5c-0.1,0.1-0.3,0.1-0.4,0c0,0,0,0,0,0
		l-0.9-1.1c0-0.1-0.1-0.1-0.2,0c0,0,0,0,0,0l-10.8,9.1c-0.1,0.1-0.1,0.2,0,0.2c0,0,0,0,0,0l0.9,1.1c0.1,0.1,0.1,0.3,0.1,0.4
		c0,0,0,0-0.1,0.1l-1.9,1.5c-0.1,0.1-0.3,0.1-0.4,0.1c0,0,0,0-0.1-0.1l-4.4-5.1c-0.1-0.1-0.1-0.3-0.1-0.4c0,0,0,0,0.1-0.1l1.8-1.5
		c0.1-0.1,0.3-0.1,0.4-0.1c0,0,0,0,0.1,0.1l0.9,1.1c0,0.1,0.1,0.1,0.2,0c0,0,0,0,0,0l4.1-3.5c0.1-0.1,0.1-0.2,0-0.2c0,0,0,0,0,0
		l-4.7-5.6c-0.1-0.1-0.2-0.1-0.2,0c0,0,0,0,0,0l-4.1,3.5c-0.1,0.1-0.1,0.2,0,0.2c0,0,0,0,0,0l0.9,1.1c0.1,0.1,0.1,0.2,0.1,0.4
		c0,0,0,0-0.1,0.1l-1.8,1.5c-0.1,0.1-0.2,0.1-0.4,0.1c0,0,0,0-0.1-0.1l-4.4-5.1c-0.1-0.1-0.1-0.2-0.1-0.4c0,0,0,0,0.1-0.1l1.8-1.5
		c0.1-0.1,0.2-0.1,0.4-0.1c0,0,0,0,0.1,0.1l0.9,1.1c0,0.1,0.1,0.1,0.2,0c0,0,0,0,0,0l10.8-9.1c0.1,0,0.1-0.1,0-0.2c0,0,0,0,0,0
		l-0.9-1.1c-0.1-0.1-0.1-0.2-0.1-0.4c0,0,0,0,0.1-0.1l1.8-1.5c0.1-0.1,0.3-0.1,0.4-0.1c0,0,0,0,0.1,0.1l4.4,5.1
		c0.1,0.1,0.1,0.2,0.1,0.4c0,0,0,0-0.1,0.1l-1.8,1.6c-0.1,0.1-0.3,0.1-0.4,0.1c0,0,0,0-0.1-0.1l-0.9-1.1c0-0.1-0.1-0.1-0.2,0
		c0,0,0,0,0,0l-4,3.4c-0.1,0-0.1,0.1,0,0.2c0,0,0,0,0,0l4.8,5.6c0,0.1,0.1,0.1,0.2,0c0,0,0,0,0,0l4-3.4c0.1-0.1,0.1-0.2,0-0.2
		c0,0,0,0,0,0l-0.9-1.1c-0.1-0.1-0.1-0.2-0.1-0.4c0,0,0,0,0.1-0.1l1.8-1.5c0.1-0.1,0.2-0.2,0.4-0.1
		C448.6,153.4,448.7,153.5,448.7,153.5z"/>
	<path class="st1" d="M464.6,175.3l3.5,5.4c0.1,0.1,0.1,0.3,0,0.4c0,0,0,0-0.1,0l-2,1.3c-0.1,0.1-0.3,0.1-0.4,0c0,0,0,0,0-0.1
		l-0.8-1.2c0-0.1-0.1-0.1-0.2-0.1c0,0,0,0,0,0l-14.2,9.3c-0.1,0.1-0.3,0.1-0.4,0c0,0,0,0,0-0.1l-1.5-2.2c-0.1-0.2-0.1-0.4,0-0.6
		l7.2-14.6l-0.1-0.1l-9.4,6.1c-0.1,0.1-0.1,0.2,0,0.2c0,0,0,0,0,0l0.8,1.2c0.1,0.1,0.1,0.3,0,0.4c0,0,0,0-0.1,0l-2,1.3
		c-0.1,0.1-0.3,0.1-0.4,0c0,0,0,0,0-0.1l-3.5-5.4c-0.1-0.1-0.1-0.3,0-0.4c0,0,0,0,0.1,0l2-1.3c0.1-0.1,0.3-0.1,0.4,0c0,0,0,0,0,0
		l0.8,1.2c0,0.1,0.1,0.1,0.2,0.1c0,0,0,0,0,0l11.8-7.7c0.1,0,0.1-0.1,0.1-0.2c0,0,0,0,0,0l-0.8-1.2c-0.1-0.1-0.1-0.3,0-0.4
		c0,0,0,0,0.1,0l2-1.3c0.1-0.1,0.3-0.1,0.4,0c0,0,0,0,0,0.1l2.5,3.9c0.1,0.2,0.1,0.4,0,0.6l-7.2,14.6l0.1,0.1l9.4-6.1
		c0.1,0,0.1-0.1,0.1-0.2c0,0,0,0,0,0l-0.8-1.2c-0.1-0.1-0.1-0.3,0-0.4c0,0,0,0,0.1,0l2-1.3C464.4,175.1,464.5,175.2,464.6,175.3z"/>
	<path class="st1" d="M475.9,194.8c0.8,1.4,1.1,3,0.9,4.6c-0.2,1.5-1,2.9-2.1,4c-3,2.3-6.4,4-10,4.9c-1.5,0.3-3.1,0-4.4-0.8
		c-1.4-0.8-2.5-2.1-3.1-3.5c-0.7-1.4-1-3-0.9-4.6c0.2-1.5,1-2.9,2.1-4c1.4-1.2,3.1-2.2,4.8-2.9c1.6-0.9,3.4-1.6,5.2-2
		c1.5-0.3,3.1,0,4.5,0.8C474.2,192.1,475.3,193.4,475.9,194.8z M473.1,196.2c-0.7-1.6-2.4-2.6-4.1-2.2c-3,0.9-5.8,2.3-8.4,4.1
		c-1.6,1.6-1.6,4.1,0,5.7c0.9,0.9,2.1,1.3,3.3,1.1c1.5-0.4,3-1,4.3-1.7c1.4-0.6,2.8-1.4,4-2.4C473.6,199.6,473.9,197.7,473.1,196.2
		L473.1,196.2z"/>
	<path class="st1" d="M482.3,209.6l2.3,6.4c0.1,0.1,0,0.3-0.1,0.4c0,0,0,0-0.1,0l-2.2,0.8c-0.1,0.1-0.3,0-0.4-0.1c0,0,0,0,0-0.1
		l-0.5-1.4c0-0.1-0.1-0.1-0.2-0.1c0,0,0,0,0,0l-13,4.7c-0.1,0-0.1,0.1-0.1,0.2c0,0,0,0,0,0.1l1.9,5.2c0,0.1,0.1,0.1,0.2,0.1
		c0,0,0,0,0,0l1.7-0.6c0.1-0.1,0.3,0,0.4,0.1c0,0,0,0,0,0.1l0.9,2.5c0.1,0.1,0,0.3-0.1,0.4c0,0,0,0-0.1,0l-4.5,1.6
		c-0.1,0.1-0.3,0-0.4-0.1c0,0,0,0,0-0.1l-4.8-13.2c-0.1-0.1,0-0.3,0.1-0.4c0,0,0,0,0.1,0l2.2-0.8c0.1-0.1,0.3,0,0.4,0.1
		c0,0,0,0,0,0.1l0.5,1.4c0,0.1,0.1,0.1,0.2,0.1c0,0,0,0,0.1,0l13.3-4.8c0.1,0,0.1-0.1,0.1-0.2c0,0,0,0,0,0l-0.5-1.4
		c-0.1-0.1,0-0.3,0.1-0.4c0,0,0,0,0.1,0l2.2-0.8C482,209.3,482.2,209.4,482.3,209.6C482.3,209.5,482.3,209.6,482.3,209.6z"/>
	<path class="st1" d="M491.5,237.6c0.4,1.6,0.4,3.2-0.1,4.7c-0.5,1.4-1.6,2.7-2.9,3.4c-1.7,0.9-3.5,1.5-5.3,1.9
		c-1.8,0.5-3.7,0.8-5.6,0.8c-1.5-0.1-3-0.7-4.2-1.7c-1.2-1.1-2-2.6-2.3-4.1c-0.4-1.5-0.4-3.2,0.1-4.7c0.5-1.4,1.6-2.7,2.9-3.4
		c1.7-0.9,3.5-1.5,5.3-1.9c1.8-0.5,3.7-0.8,5.6-0.8c1.5,0.1,3,0.7,4.2,1.7C490.4,234.6,491.2,236,491.5,237.6z M488.4,238.4
		c-0.3-1.7-1.8-2.9-3.5-3c-1.6,0.1-3.1,0.3-4.6,0.8c-1.5,0.3-3,0.8-4.5,1.5c-1.9,1.2-2.4,3.7-1.2,5.5c0.7,1,1.8,1.7,3,1.8
		c1.6-0.1,3.1-0.3,4.6-0.8c1.5-0.3,3-0.8,4.5-1.4C488.3,241.9,489,240,488.4,238.4z"/>
	<path class="st1" d="M495.9,262c0.2,1.2,0.1,2.4-0.1,3.6c-0.2,1-0.5,2-1.1,2.9c-0.1,0.1-0.2,0.2-0.4,0.3l-3.6,0.4
		c-0.2,0-0.3-0.1-0.3-0.3l-0.3-2.7c0-0.1,0-0.3,0.2-0.3c0,0,0,0,0.1,0l1.8-0.2c0.1,0,0.2-0.1,0.2-0.1c0.5-1,0.6-2.1,0.4-3.2
		c-0.3-2.2-1.4-3.5-3.2-3.9c-1.6-0.2-3.1-0.2-4.7,0.1c-1.5,0.1-3.1,0.5-4.5,1c-0.8,0.3-1.4,0.9-1.8,1.6c-0.4,0.9-0.5,1.9-0.3,2.8
		c0.1,1.2,0.5,2.3,1.1,3.2c0.1,0.2,0.3,0.3,0.5,0.2l4-0.5c0.1,0,0.2-0.1,0.2-0.2l-0.4-3.2c0-0.1,0-0.3,0.2-0.3c0,0,0.1,0,0.1,0
		l2.4-0.3c0.1,0,0.3,0,0.3,0.2c0,0,0,0.1,0,0.1l0.8,6.5c0,0.1,0,0.3-0.2,0.3c0,0-0.1,0-0.1,0l-8.5,1c-0.3,0-0.6-0.1-0.8-0.3
		c-1.6-1.8-2.5-4-2.7-6.4c-0.5-4,0.8-6.7,3.8-8.1c1.8-0.7,3.7-1.1,5.6-1.2c1.9-0.3,3.8-0.4,5.6-0.1
		C493.5,255.5,495.4,257.9,495.9,262z"/>
	<path class="st1" d="M497.1,286.3l0.1,6c0,0.1-0.1,0.3-0.2,0.3c0,0-0.1,0-0.1,0h-2.3c-0.1,0-0.3-0.1-0.3-0.2c0,0,0,0,0-0.1v-0.8
		c0-0.1-0.1-0.2-0.1-0.2l-9-5l-5.2,0.1c-0.1,0-0.2,0-0.2,0.1c0,0,0,0,0,0v1.5c0,0.2-0.1,0.3-0.2,0.3c0,0,0,0-0.1,0h-2.3
		c-0.1,0-0.3-0.1-0.3-0.2c0,0,0-0.1,0-0.1l-0.1-6.9c0-0.1,0.1-0.3,0.2-0.3c0,0,0,0,0.1,0h2.3c0.1,0,0.3,0.1,0.3,0.2c0,0,0,0,0,0.1
		v1.5c0,0.1,0.1,0.2,0.2,0.2c0,0,0,0,0,0l5.2-0.1l8.9-5.2c0.1-0.1,0.2-0.2,0.2-0.3v-0.8c0-0.2,0.1-0.3,0.3-0.3h2.3
		c0.2,0,0.3,0.1,0.3,0.3l0.1,6c0,0.1-0.1,0.3-0.2,0.3c0,0-0.1,0-0.1,0h-2.3c-0.1,0-0.3-0.1-0.3-0.2c0,0,0,0,0-0.1v-1.1
		c0-0.2-0.1-0.3-0.3-0.2l-5.6,3.2v0.1l5.8,3.2c0.1,0.1,0.2,0,0.2-0.1v-1.3c0-0.2,0.1-0.3,0.3-0.3h2.3
		C497,286,497.1,286.1,497.1,286.3C497.1,286.3,497.1,286.3,497.1,286.3z"/>
	<path class="st1" d="M122,378.5l4.8,8c1,1.5,1.3,3.3,1,5c-0.9,3.4-4.4,5.5-7.8,4.7c-1.7-0.5-3.1-1.7-4-3.2l-2-3.4
		c0-0.1-0.1-0.1-0.2-0.1c0,0,0,0,0,0l-3.8,2.3c-0.1,0-0.1,0.1-0.1,0.2c0,0,0,0,0,0l0.9,1.6c0.1,0.1,0.1,0.3,0,0.4c0,0,0,0-0.1,0
		l-2,1.2c-0.1,0.1-0.3,0.1-0.4,0c0,0,0,0,0-0.1l-3.7-6.1c-0.1-0.1-0.1-0.3,0-0.4c0,0,0,0,0.1,0l2-1.2c0.1-0.1,0.3-0.1,0.4,0
		c0,0,0,0,0,0.1l0.7,1.2c0,0.1,0.1,0.1,0.2,0.1c0,0,0,0,0,0l12-7.2c0.1,0,0.1-0.1,0.1-0.2c0,0,0,0,0,0l-0.7-1.2
		c-0.1-0.1-0.1-0.3,0-0.4c0,0,0,0,0.1,0l2-1.2C121.7,378.3,121.9,378.3,122,378.5C122,378.5,122,378.5,122,378.5z M124,387.9l-2-3.3
		c0-0.1-0.1-0.1-0.2-0.1c0,0,0,0,0,0l-5.1,3c-0.1,0-0.1,0.1-0.1,0.2c0,0,0,0,0,0l2,3.3c0.4,0.8,1.1,1.4,2,1.7
		c0.8,0.2,1.7,0.1,2.4-0.4c0.7-0.4,1.3-1.1,1.5-1.9C124.7,389.6,124.5,388.7,124,387.9z"/>
	<path class="st1" d="M133.9,397.5l5.9,7.5c1.2,1.3,1.8,3,1.7,4.7c-0.4,2.9-2.8,5.1-5.7,5.3c-1.2,0-2.5-0.3-3.5-1l-2.9,5.7
		c-0.1,0.1-0.1,0.2,0,0.3l0.8,1.1c0.1,0.1,0.1,0.3,0,0.4c0,0,0,0,0,0l-1.8,1.4c-0.1,0.1-0.2,0.1-0.4,0c0,0,0,0-0.1-0.1l-2.2-2.9
		c-0.1-0.2-0.1-0.4,0-0.5l4.1-8l-1.9-2.5c-0.1-0.1-0.2-0.1-0.2,0c0,0,0,0,0,0l-4.1,3.2c-0.1,0.1-0.1,0.2,0,0.2c0,0,0,0,0,0l0.9,1.1
		c0.1,0.1,0.1,0.3,0,0.4c0,0,0,0,0,0l-1.8,1.4c-0.1,0.1-0.3,0.1-0.4,0c0,0,0,0,0-0.1L118,410c-0.1-0.1-0.1-0.3,0-0.4c0,0,0,0,0,0
		l1.8-1.4c0.1-0.1,0.3-0.1,0.4,0c0,0,0,0,0,0l0.9,1.1c0.1,0.1,0.2,0.1,0.2,0c0,0,0,0,0,0l11.1-8.6c0.1-0.1,0.1-0.2,0-0.2
		c0,0,0,0,0,0l-0.9-1.1c-0.1-0.1-0.1-0.2-0.1-0.4c0,0,0,0,0.1-0.1l1.8-1.4c0.1-0.1,0.2-0.2,0.4-0.1
		C133.8,397.4,133.9,397.4,133.9,397.5z M137.3,406.8l-2.5-3.2c-0.1-0.1-0.2-0.1-0.2,0c0,0,0,0,0,0l-4.2,3.3c-0.1,0-0.1,0.1,0,0.2
		c0,0,0,0,0,0l2.5,3.2c0.5,0.7,1.2,1.1,2,1.3c1.6,0.2,3-0.9,3.2-2.5C138.1,408.2,137.8,407.4,137.3,406.8z"/>
	<path class="st1" d="M154.1,420.7c1.2,1.1,2,2.5,2.3,4.1c0.3,1.5,0,3.1-0.7,4.4c-2.1,3.1-4.8,5.8-7.9,7.8c-1.4,0.7-2.9,1-4.4,0.7
		c-1.6-0.4-3-1.2-4.1-2.4c-1.2-1.1-2-2.5-2.3-4.1c-0.3-1.5,0-3.1,0.7-4.4c2.1-3.1,4.8-5.8,7.9-7.8c1.4-0.7,2.9-1,4.4-0.7
		C151.6,418.7,153,419.5,154.1,420.7z M151.9,422.9c-1.1-1.3-3-1.6-4.5-0.8c-1.3,0.8-2.5,1.9-3.6,3c-1.2,1-2.2,2.2-3.1,3.5
		c-1,2-0.1,4.4,1.9,5.3c1.1,0.5,2.3,0.5,3.4,0c1.3-0.8,2.5-1.9,3.6-3c1.1-1,2.1-2.2,3-3.5C153.4,426,153.1,424.1,151.9,422.9z"/>
	<path class="st1" d="M170.9,435.8c0.9,0.7,1.8,1.6,2.4,2.6c0.6,0.8,1,1.8,1.2,2.8c0,0.2,0,0.3-0.1,0.5l-2.2,2.8
		c-0.1,0.1-0.2,0.1-0.4,0.1c0,0,0,0-0.1-0.1l-2.1-1.7c-0.1-0.1-0.2-0.2-0.1-0.4c0,0,0,0,0.1-0.1l1.1-1.4c0-0.1,0-0.2,0-0.3
		c-0.4-1-1-1.9-1.9-2.6c-1.7-1.4-3.4-1.5-5-0.5c-1.2,0.9-2.3,2.1-3.3,3.3c-1,1.2-1.9,2.4-2.6,3.8c-0.3,0.8-0.4,1.6-0.1,2.4
		c0.3,0.9,0.9,1.7,1.7,2.2c0.8,0.8,1.9,1.3,3,1.5c0.2,0,0.4,0,0.5-0.2l2.5-3.1c0.1-0.1,0.1-0.2,0-0.2c0,0,0,0,0,0l-2.5-2
		c-0.1-0.1-0.2-0.2-0.1-0.4c0,0,0,0,0,0l1.5-1.9c0.1-0.1,0.2-0.1,0.4-0.1c0,0,0,0,0.1,0.1l5.1,4.1c0.1,0.1,0.2,0.2,0.1,0.4
		c0,0,0,0-0.1,0.1l-5.3,6.7c-0.2,0.2-0.5,0.4-0.8,0.3c-2.4-0.2-4.6-1.1-6.4-2.7c-3.1-2.5-4.1-5.3-2.9-8.4c0.8-1.7,1.9-3.3,3.1-4.7
		c1.1-1.5,2.4-2.9,3.9-4C164.6,432.8,167.7,433.2,170.9,435.8z"/>
	<path class="st1" d="M181.9,444.5l8.1,5c1.5,0.8,2.7,2.2,3.2,3.9c0.4,1.6,0.1,3.3-0.8,4.6c-0.6,1-1.6,1.9-2.7,2.3
		c-1.2,0.5-2.4,0.5-3.6,0.2l-0.7,6.3c0,0.1,0,0.2,0.1,0.3l1.1,0.7c0.1,0.1,0.2,0.2,0.1,0.4c0,0,0,0,0,0.1l-1.2,2
		c-0.1,0.1-0.2,0.2-0.3,0.1c0,0,0,0-0.1,0l-3.1-1.9c-0.2-0.1-0.3-0.3-0.2-0.5l1.1-9l-2.6-1.6c-0.1-0.1-0.2,0-0.2,0c0,0,0,0,0,0
		l-2.7,4.4c-0.1,0.1-0.1,0.2,0,0.2c0,0,0,0,0,0l1.2,0.8c0.1,0.1,0.2,0.2,0.1,0.3c0,0,0,0,0,0.1l-1.2,2c-0.1,0.1-0.2,0.2-0.3,0.1
		c0,0,0,0-0.1,0l-5.7-3.5c-0.1-0.1-0.2-0.2-0.1-0.4c0,0,0,0,0-0.1l1.2-2c0.1-0.1,0.2-0.2,0.4-0.1c0,0,0,0,0.1,0l1.2,0.8
		c0.1,0.1,0.2,0.1,0.2,0c0,0,0,0,0-0.1l7.4-11.9c0.1-0.1,0-0.2,0-0.2c0,0,0,0,0,0l-1.2-0.8c-0.1-0.1-0.2-0.2-0.1-0.3c0,0,0,0,0-0.1
		l1.2-2C181.5,444.5,181.7,444.4,181.9,444.5C181.9,444.4,181.9,444.5,181.9,444.5z M188.3,452l-3.5-2.2c-0.1-0.1-0.2-0.1-0.2,0
		c0,0,0,0,0,0l-2.8,4.5c-0.1,0.1,0,0.2,0,0.2c0,0,0,0,0,0l3.5,2.2c0.7,0.5,1.5,0.6,2.3,0.5c0.8-0.2,1.4-0.6,1.8-1.3
		c0.4-0.6,0.6-1.4,0.4-2.2C189.6,453.1,189,452.4,188.3,452L188.3,452z"/>
	<path class="st1" d="M201.6,456.2l13,6.1c0.1,0,0.2,0.2,0.2,0.3c0,0,0,0.1,0,0.1l-1.9,4.2c0,0.1-0.2,0.2-0.3,0.2c0,0-0.1,0-0.1,0
		l-2.3-1.1c-0.1,0-0.2-0.2-0.2-0.3c0,0,0,0,0-0.1l0.7-1.5c0-0.1,0-0.2,0-0.2c0,0,0,0,0,0l-5.5-2.5c-0.1-0.1-0.2,0-0.2,0
		c0,0,0,0,0,0.1l-2.1,4.5c0,0.1,0,0.2,0,0.2c0,0,0,0,0,0l3.7,1.7c0.1,0,0.2,0,0.2-0.1l0.4-1c0-0.1,0.2-0.2,0.3-0.2c0,0,0.1,0,0.1,0
		l2.2,1c0.1,0,0.2,0.2,0.2,0.3c0,0,0,0,0,0.1l-2.4,5.1c0,0.1-0.2,0.2-0.3,0.2c0,0-0.1,0-0.1,0l-2.2-1c-0.1,0-0.2-0.2-0.2-0.3
		c0,0,0,0,0-0.1l0.4-1c0.1-0.1,0-0.2,0-0.2c0,0,0,0-0.1,0l-3.7-1.7c-0.1,0-0.2,0-0.2,0c0,0,0,0,0,0l-2.2,4.8c0,0.1,0,0.2,0,0.2
		c0,0,0,0,0,0l5.5,2.6c0.1,0,0.2,0,0.2,0c0,0,0,0,0,0l0.8-1.6c0-0.1,0.2-0.2,0.3-0.2c0,0,0.1,0,0.1,0l2.3,1.1c0.1,0,0.2,0.2,0.2,0.3
		c0,0,0,0,0,0.1l-2,4.3c0,0.1-0.2,0.2-0.3,0.2c0,0,0,0-0.1,0l-13-6.1c-0.1,0-0.2-0.2-0.2-0.3c0,0,0-0.1,0-0.1l1-2.1
		c0-0.1,0.2-0.2,0.3-0.2c0,0,0,0,0.1,0l1.3,0.6c0.1,0,0.2,0,0.2,0c0,0,0,0,0,0l5.9-12.7c0-0.1,0-0.2,0-0.2c0,0,0,0,0,0l-1.3-0.6
		c-0.1,0-0.2-0.2-0.2-0.3c0,0,0-0.1,0-0.1l1-2.1C201.4,456.1,201.5,456.1,201.6,456.2z"/>
	<path class="st1" d="M228.6,467c2,0.6,3.8,1.7,5.2,3.2c0.1,0.1,0.1,0.3,0.1,0.4l-1.3,3.8c0,0.1-0.2,0.2-0.3,0.2c0,0-0.1,0-0.1,0
		l-2.5-0.8c-0.1,0-0.2-0.2-0.2-0.3c0,0,0,0,0-0.1l0.6-1.7c0-0.1,0-0.2-0.1-0.3c-0.8-0.6-1.7-1.1-2.6-1.5c-0.8-0.3-1.7-0.4-2.6-0.1
		c-0.7,0.3-1.2,0.9-1.4,1.6c-0.2,0.7-0.2,1.4,0.2,2c0.6,0.8,1.4,1.4,2.4,1.8l1,0.5c3.7,1.8,4.9,4.3,3.8,7.6c-0.5,1.7-1.7,3-3.3,3.7
		c-1.9,0.7-4,0.6-5.8-0.2c-2.2-0.7-4.2-1.9-5.8-3.6c-0.1-0.1-0.1-0.3-0.1-0.4l1.3-3.8c0-0.1,0.2-0.2,0.3-0.2c0,0,0,0,0.1,0l2.6,0.9
		c0.1,0,0.2,0.2,0.2,0.3c0,0,0,0,0,0.1l-0.6,1.9c0,0.1,0,0.2,0.1,0.2c0.9,0.8,2,1.4,3.1,1.8c0.9,0.4,1.9,0.4,2.9,0.2
		c0.8-0.3,1.4-0.9,1.6-1.7c0.2-0.7,0.2-1.4-0.2-2c-0.6-0.8-1.4-1.4-2.4-1.8l-1-0.5c-3.6-1.8-4.9-4.3-3.9-7.5
		c0.4-1.6,1.6-2.9,3.2-3.6C225,466.2,226.9,466.3,228.6,467z"/>
	<path class="st1" d="M249.3,472.6c2,0.4,3.9,1.3,5.5,2.6c0.1,0.1,0.2,0.2,0.1,0.4l-0.8,3.9c0,0.1-0.1,0.3-0.3,0.2c0,0-0.1,0-0.1,0
		l-2.6-0.5c-0.1,0-0.2-0.1-0.2-0.3c0,0,0-0.1,0-0.1l0.4-1.8c0-0.1,0-0.2-0.1-0.3c-0.9-0.5-1.8-0.9-2.8-1.1c-0.8-0.2-1.8-0.2-2.6,0.2
		c-0.6,0.4-1.1,1-1.2,1.7c-0.2,0.7,0,1.4,0.4,2c0.7,0.7,1.6,1.3,2.6,1.5l1,0.4c3.8,1.4,5.4,3.7,4.7,7.1c-0.3,1.7-1.3,3.2-2.8,4
		c-1.8,0.9-3.9,1-5.8,0.5c-2.3-0.4-4.4-1.5-6.1-2.9c-0.1-0.1-0.2-0.2-0.1-0.4l0.8-4c0-0.1,0.1-0.3,0.3-0.2c0,0,0.1,0,0.1,0l2.7,0.6
		c0.1,0,0.3,0.1,0.2,0.3c0,0,0,0.1,0,0.1l-0.4,2c0,0.1,0,0.2,0.1,0.2c1,0.7,2.1,1.1,3.3,1.4c1,0.3,2,0.2,2.9-0.2
		c0.8-0.4,1.3-1.1,1.4-1.9c0.2-0.7,0-1.4-0.4-2c-0.7-0.7-1.6-1.3-2.6-1.5l-1-0.4c-3.8-1.4-5.4-3.7-4.7-7c0.3-1.7,1.3-3.1,2.8-3.9
		C245.6,472.3,247.5,472.1,249.3,472.6z"/>
	<path class="st1" d="M280.2,476.8l3.2,0.1c0.2,0,0.3,0.1,0.4,0.3l5.3,17.1c0,0.1,0.1,0.2,0.2,0.2c0,0,0,0,0,0h0.9
		c0.1,0,0.3,0.1,0.3,0.2c0,0,0,0.1,0,0.1l-0.1,2.3c0,0.1-0.1,0.3-0.2,0.3c0,0-0.1,0-0.1,0l-6.1-0.2c-0.1,0-0.3-0.1-0.3-0.2
		c0,0,0,0,0-0.1l0.1-2.3c0-0.1,0.1-0.3,0.2-0.3c0,0,0.1,0,0.1,0l1.3,0c0.1,0,0.2-0.1,0.2-0.2l-0.8-2.6l-6.9-0.2l-1,2.6
		c-0.1,0.2,0,0.2,0.1,0.2l1.2,0c0.1,0,0.3,0.1,0.3,0.2c0,0,0,0.1,0,0.1l-0.1,2.3c0,0.1-0.1,0.3-0.2,0.3c0,0,0,0-0.1,0l-6.1-0.2
		c-0.2,0-0.3-0.1-0.3-0.3l0.1-2.3c0-0.1,0.1-0.3,0.2-0.3c0,0,0,0,0.1,0h1c0.1,0,0.2-0.1,0.2-0.2l6.5-16.6
		C279.8,476.9,280,476.8,280.2,476.8z M281.5,481.3l-2.6,6.9l4.8,0.2L281.5,481.3L281.5,481.3z"/>
	<path class="st1" d="M308.6,475.9l6.4-0.6c0.1,0,0.3,0.1,0.3,0.2c0,0,0,0.1,0,0.1l0.2,2.3c0,0.2-0.1,0.3-0.2,0.3c0,0,0,0,0,0
		l-1.4,0.1c-0.1,0-0.2,0.1-0.2,0.1c0,0,0,0,0,0.1l1.6,16.8c0,0.1-0.1,0.3-0.2,0.3c0,0,0,0-0.1,0l-2.7,0.2c-0.2,0-0.4-0.1-0.5-0.2
		l-9.5-13.1h-0.1l1,11.1c0,0.1,0.1,0.2,0.2,0.2c0,0,0,0,0,0l1.4-0.1c0.1,0,0.3,0.1,0.3,0.2c0,0,0,0.1,0,0.1l0.2,2.3
		c0,0.1-0.1,0.3-0.2,0.3c0,0,0,0-0.1,0l-6.4,0.6c-0.2,0-0.3-0.1-0.3-0.3l-0.2-2.3c0-0.2,0.1-0.3,0.3-0.3l1.4-0.1
		c0.1,0,0.2-0.1,0.2-0.2c0,0,0,0,0,0l-1.3-14c0-0.1-0.1-0.2-0.2-0.2c0,0,0,0,0,0l-1.4,0.1c-0.1,0-0.3-0.1-0.3-0.2c0,0,0,0,0-0.1
		l-0.2-2.3c0-0.1,0.1-0.3,0.2-0.3c0,0,0.1,0,0.1,0l4.6-0.4c0.2,0,0.4,0.1,0.5,0.2l9.5,13.2h0.1l-1-11.1c0-0.1-0.1-0.2-0.2-0.2
		l-1.4,0.1c-0.2,0-0.3-0.1-0.3-0.3l-0.2-2.3C308.4,476,308.5,475.9,308.6,475.9z"/>
	<path class="st1" d="M321.8,474.2l8.7-2c3.4-0.8,6,0.2,7.6,2.9c0.8,1.7,1.4,3.5,1.7,5.4c0.5,1.8,0.7,3.7,0.7,5.6
		c-0.3,3.1-2.2,5.1-5.6,5.9l-8.7,2c-0.1,0.1-0.3,0-0.3-0.2c0,0,0,0,0-0.1l-0.5-2.3c-0.1-0.1,0-0.3,0.1-0.3c0,0,0.1,0,0.1,0l1.4-0.3
		c0.1,0,0.1-0.1,0.1-0.2c0,0,0,0,0,0l-3.1-13.7c0-0.1-0.1-0.2-0.2-0.1c0,0,0,0,0,0l-1.4,0.3c-0.1,0.1-0.3,0-0.3-0.2c0,0,0,0,0-0.1
		l-0.5-2.3C321.5,474.4,321.5,474.2,321.8,474.2C321.7,474.2,321.7,474.2,321.8,474.2z M330.4,475.5l-2.8,0.6
		c-0.1,0-0.2,0.1-0.1,0.2c0,0,0,0,0,0l3,13.2c0,0.1,0.1,0.1,0.2,0.1c0,0,0,0,0.1,0l2.8-0.6c2.2-0.5,3.4-1.6,3.5-3.4
		c0-1.5-0.2-2.9-0.6-4.4c-0.2-1.5-0.7-2.9-1.3-4.2C334.1,475.5,332.6,475,330.4,475.5L330.4,475.5z"/>
	<path class="st1" d="M361.1,462c1.9-0.8,4-1.2,6-1c0.2,0,0.3,0.1,0.3,0.2l1.5,3.7c0.1,0.1,0,0.3-0.1,0.4c0,0,0,0-0.1,0l-2.4,1
		c-0.1,0.1-0.3,0-0.4-0.1c0,0,0,0,0-0.1l-0.7-1.7c0-0.1-0.1-0.2-0.3-0.2c-1,0-2.1,0.2-3,0.6c-0.8,0.3-1.5,0.8-2,1.6
		c-0.3,0.7-0.3,1.4,0,2.1c0.2,0.7,0.8,1.2,1.5,1.4c1,0.2,2,0.1,3-0.2l1-0.3c3.9-1,6.6,0,7.9,3.2c0.7,1.6,0.7,3.4,0,4.9
		c-1,1.7-2.6,3.1-4.5,3.7c-2.1,0.9-4.4,1.3-6.7,1.1c-0.2,0-0.3-0.1-0.3-0.2l-1.6-3.7c-0.1-0.1,0-0.3,0.1-0.4c0,0,0,0,0.1,0l2.5-1
		c0.1-0.1,0.3,0,0.4,0.1c0,0,0,0,0,0.1l0.8,1.8c0,0.1,0.1,0.1,0.2,0.1c1.2,0,2.4-0.3,3.5-0.7c0.9-0.3,1.8-0.9,2.3-1.8
		c0.4-0.7,0.5-1.6,0.1-2.4c-0.3-0.7-0.8-1.2-1.5-1.4c-1-0.2-2-0.1-3,0.2l-1,0.3c-3.9,1-6.5,0-7.9-3.1c-0.7-1.5-0.7-3.3,0-4.8
		C357.8,463.9,359.3,462.7,361.1,462z"/>
	<path class="st1" d="M373.9,456.7l12.6-7c0.1-0.1,0.3-0.1,0.4,0c0,0,0,0,0,0.1l2.2,4c0.1,0.1,0.1,0.3-0.1,0.4c0,0,0,0-0.1,0
		l-2.2,1.2c-0.1,0.1-0.3,0.1-0.4-0.1c0,0,0,0,0-0.1l-0.8-1.4c0-0.1-0.1-0.1-0.2-0.1c0,0,0,0,0,0l-5.3,3c-0.1,0-0.1,0.1-0.1,0.2
		c0,0,0,0,0,0l2.4,4.4c0,0.1,0.1,0.1,0.2,0.1c0,0,0,0,0,0l3.6-2c0.1,0,0.1-0.1,0.1-0.2c0,0,0,0,0-0.1l-0.5-0.9
		c-0.1-0.1-0.1-0.3,0-0.4c0,0,0,0,0.1,0l2.2-1.2c0.1-0.1,0.3-0.1,0.4,0c0,0,0,0.1,0,0.1l2.7,4.9c0.1,0.1,0.1,0.3-0.1,0.4
		c0,0,0,0-0.1,0l-2.1,1.2c-0.1,0.1-0.3,0.1-0.4-0.1c0,0,0,0,0-0.1l-0.5-0.9c0-0.1-0.1-0.1-0.2-0.1c0,0,0,0,0,0l-3.6,2
		c-0.1,0-0.1,0.1-0.1,0.2c0,0,0,0,0,0l2.6,4.6c0,0.1,0.1,0.1,0.2,0.1c0,0,0,0,0,0l5.3-3c0.1,0,0.1-0.1,0.1-0.2c0,0,0,0,0,0l-0.9-1.6
		c-0.1-0.1-0.1-0.3,0.1-0.4c0,0,0,0,0.1,0l2.2-1.2c0.1-0.1,0.3-0.1,0.4,0c0,0,0,0,0,0.1l2.3,4.2c0.1,0.1,0.1,0.3-0.1,0.4
		c0,0,0,0-0.1,0l-12.5,7c-0.1,0.1-0.3,0.1-0.4-0.1c0,0,0,0,0-0.1l-1.1-2c-0.1-0.1-0.1-0.3,0.1-0.4c0,0,0,0,0.1,0l1.2-0.7
		c0.1,0,0.1-0.1,0.1-0.2c0,0,0,0,0,0l-6.9-12.3c0-0.1-0.1-0.1-0.2-0.1c0,0,0,0,0,0l-1.2,0.7c-0.1,0.1-0.3,0.1-0.4-0.1c0,0,0,0,0-0.1
		l-1.1-2c-0.1-0.1-0.1-0.3,0-0.4C373.8,456.7,373.8,456.7,373.9,456.7z"/>
	<path class="st1" d="M392.5,445.9l7.7-5.6c1.3-1.1,3.1-1.7,4.8-1.5c1.6,0.2,3.1,1.1,3.9,2.5c0.7,1,1.1,2.1,1.1,3.4
		c0,1.2-0.4,2.4-1.1,3.4l5.6,3.1c0.1,0.1,0.2,0.1,0.3,0l1.1-0.8c0.1-0.1,0.3-0.1,0.4,0c0,0,0,0,0,0.1l1.4,1.9c0.1,0.1,0.1,0.3,0,0.4
		c0,0,0,0-0.1,0l-3,2.1c-0.2,0.1-0.4,0.1-0.5,0l-7.9-4.4l-2.5,1.8c-0.1,0.1-0.1,0.2,0,0.2c0,0,0,0,0,0l3,4.2c0.1,0.1,0.2,0.1,0.2,0
		c0,0,0,0,0,0l1.1-0.8c0.1-0.1,0.3-0.1,0.4,0c0,0,0,0,0,0.1l1.4,1.9c0.1,0.1,0.1,0.3,0,0.4c0,0,0,0-0.1,0.1l-5.5,4
		c-0.1,0.1-0.3,0.1-0.4,0c0,0,0,0,0-0.1l-1.4-1.9c-0.1-0.1-0.1-0.3,0-0.4c0,0,0,0,0.1,0l1.2-0.8c0.1-0.1,0.1-0.2,0-0.2c0,0,0,0,0,0
		l-8.2-11.4c-0.1-0.1-0.2-0.1-0.2,0c0,0,0,0,0,0l-1.2,0.8c-0.1,0.1-0.3,0.1-0.4,0c0,0,0,0,0-0.1l-1.4-1.9
		C392.3,446.1,392.3,446,392.5,445.9C392.5,445.9,392.5,445.9,392.5,445.9z M401.9,442.9l-3.3,2.4c-0.1,0-0.1,0.1,0,0.2c0,0,0,0,0,0
		l3.1,4.3c0.1,0.1,0.2,0.1,0.2,0c0,0,0,0,0,0l3.3-2.4c0.7-0.5,1.2-1.2,1.4-2c0.2-1.6-0.8-3.1-2.4-3.3
		C403.4,442,402.6,442.3,401.9,442.9L401.9,442.9z"/>
	<path class="st1" d="M418.3,425.1l4.5-4.1c0.1-0.1,0.3-0.1,0.4,0c0,0,0,0,0,0l1.6,1.7c0.1,0.1,0.1,0.3,0,0.4c0,0,0,0,0,0l-0.6,0.6
		c-0.1,0.1-0.1,0.2,0,0.2l7.2,16.3c0.1,0.1,0.1,0.3-0.1,0.5l-2.3,2.1c-0.1,0.1-0.3,0.1-0.5,0l-15.6-8.5c-0.1-0.1-0.2-0.1-0.3,0
		l-0.6,0.5c-0.1,0.1-0.2,0.1-0.4,0.1c0,0,0,0-0.1-0.1l-1.7-1.7c-0.1-0.1-0.1-0.2-0.1-0.4c0,0,0,0,0.1-0.1l4.5-4.1
		c0.1-0.1,0.2-0.1,0.4-0.1c0,0,0,0,0.1,0.1l1.6,1.7c0.1,0.1,0.1,0.2,0.1,0.4c0,0,0,0-0.1,0.1l-1,1c-0.1,0.1-0.1,0.2,0,0.3l11.4,6.3
		l0.1-0.1l-5.4-11.9c-0.1-0.1-0.1-0.1-0.2,0l-1.1,1c-0.1,0.1-0.2,0.1-0.4,0.1c0,0,0,0-0.1-0.1l-1.6-1.7
		C418.2,425.5,418.1,425.3,418.3,425.1C418.3,425.2,418.3,425.2,418.3,425.1z"/>
	<path class="st1" d="M426.7,416.7l4.5-5c0.1-0.1,0.2-0.1,0.3-0.1c0,0,0,0,0.1,0.1l1.7,1.5c0.1,0.1,0.1,0.2,0.1,0.4c0,0,0,0-0.1,0.1
		l-1,1.1c-0.1,0-0.1,0.1,0,0.2c0,0,0,0,0,0l10.5,9.4c0.1,0.1,0.2,0.1,0.2,0c0,0,0,0,0,0l1-1.1c0.1-0.1,0.3-0.1,0.4,0c0,0,0,0,0,0
		l1.7,1.5c0.1,0.1,0.1,0.2,0.1,0.4c0,0,0,0-0.1,0.1l-4.5,5c-0.1,0.1-0.2,0.1-0.4,0.1c0,0,0,0-0.1-0.1l-1.7-1.5
		c-0.1-0.1-0.1-0.2-0.1-0.4c0,0,0,0,0.1-0.1l1-1.1c0.1-0.1,0.1-0.2,0-0.2c0,0,0,0,0,0l-10.5-9.4c0-0.1-0.1-0.1-0.2,0c0,0,0,0,0,0
		l-1,1.1c-0.1,0.1-0.3,0.1-0.4,0c0,0,0,0,0,0l-1.7-1.6C426.6,417,426.6,416.8,426.7,416.7C426.7,416.7,426.7,416.7,426.7,416.7z"/>
	<path class="st1" d="M440,400.2c1.2-1.8,2.9-3.1,4.9-3.9c0.2-0.1,0.3,0,0.5,0l3.2,2.4c0.1,0.1,0.2,0.2,0.1,0.4c0,0,0,0,0,0.1
		l-1.6,2.1c-0.1,0.1-0.3,0.2-0.4,0.1c0,0,0,0,0,0l-1.6-1.2c-0.1,0-0.2,0-0.3,0c-0.8,0.4-1.5,1-2,1.8c-0.6,0.7-1,1.6-1.1,2.6
		c0,0.8,0.3,1.7,0.8,2.3c1,1.2,2.2,2.2,3.5,3.1c1.2,1,2.5,1.8,3.9,2.5c0.8,0.3,1.6,0.3,2.4,0.1c0.9-0.4,1.7-1,2.2-1.8
		c0.5-0.7,0.9-1.5,1.2-2.4c0-0.1,0-0.2-0.1-0.3l-1.7-1.3c-0.1-0.1-0.2-0.2-0.1-0.4c0,0,0,0,0-0.1l1.6-2.1c0.1-0.1,0.2-0.2,0.4-0.1
		c0,0,0,0,0.1,0l3.2,2.4c0.1,0.1,0.2,0.3,0.2,0.5c-0.2,2.1-1.1,4.1-2.4,5.8c-2.3,3.1-5,4.1-8.2,3c-1.7-0.8-3.4-1.8-4.8-3
		c-1.5-1-2.9-2.3-4.1-3.7C437.5,406.2,437.7,403.3,440,400.2z"/>
	<path class="st1" d="M447.8,389.7l7.3-12.4c0-0.1,0.2-0.2,0.3-0.2c0,0,0.1,0,0.1,0l4,2.3c0.1,0.1,0.2,0.2,0.1,0.4c0,0,0,0,0,0.1
		l-1.3,2.2c-0.1,0.1-0.2,0.2-0.3,0.1c0,0-0.1,0-0.1,0l-1.4-0.8c-0.1-0.1-0.2,0-0.2,0c0,0,0,0,0,0l-3.1,5.2c-0.1,0.1,0,0.2,0,0.2
		c0,0,0,0,0,0l4.3,2.5c0.1,0.1,0.2,0,0.2,0c0,0,0,0,0,0l2.1-3.5c0.1-0.1,0-0.2,0-0.2c0,0,0,0,0,0l-0.9-0.5c-0.1-0.1-0.2-0.2-0.1-0.4
		c0,0,0,0,0-0.1l1.2-2.1c0.1-0.1,0.2-0.2,0.4-0.1c0,0,0,0,0.1,0l4.8,2.8c0.1,0.1,0.2,0.2,0.1,0.4c0,0,0,0,0,0.1l-1.2,2.1
		c-0.1,0.1-0.2,0.2-0.3,0.1c0,0,0,0-0.1,0l-0.9-0.5c-0.1-0.1-0.2,0-0.2,0c0,0,0,0,0,0l-2.1,3.5c-0.1,0.1,0,0.2,0,0.2c0,0,0,0,0,0
		l4.5,2.6c0.1,0.1,0.2,0,0.2,0c0,0,0,0,0,0l3-5.2c0.1-0.1,0-0.2,0-0.2c0,0,0,0,0,0l-1.5-0.9c-0.1-0.1-0.2-0.2-0.1-0.4c0,0,0,0,0-0.1
		l1.3-2.2c0.1-0.1,0.2-0.2,0.4-0.1c0,0,0,0,0.1,0l4.1,2.4c0.1,0.1,0.2,0.2,0.1,0.4c0,0,0,0,0,0.1l-7.3,12.4
		c-0.1,0.1-0.2,0.2-0.4,0.1c0,0,0,0-0.1,0l-2-1.2c-0.1-0.1-0.2-0.2-0.1-0.4c0,0,0,0,0-0.1l0.7-1.2c0.1-0.1,0-0.2,0-0.2c0,0,0,0,0,0
		l-12.1-7.1c-0.1-0.1-0.2,0-0.2,0c0,0,0,0,0,0.1l-0.7,1.2c-0.1,0.1-0.2,0.2-0.4,0.1c0,0,0,0-0.1,0l-2-1.2
		C447.8,390,447.7,389.9,447.8,389.7C447.8,389.7,447.8,389.7,447.8,389.7z"/>
	<circle class="st0" cx="480.7" cy="339.6" r="6.5"/>
	<circle class="st0" cx="95.8" cy="339.6" r="6.5"/>
</g>
</svg>
